<?xml version="1.0" standalone="no"?>
<!DOCTYPE svg PUBLIC "-//W3C//DTD SVG 20010904//EN"
 "http://www.w3.org/TR/2001/REC-SVG-20010904/DTD/svg10.dtd">
<svg version="1.0" xmlns="http://www.w3.org/2000/svg"
 width="1080.000000pt" height="1080.000000pt" viewBox="0 0 1080.000000 1080.000000"
 preserveAspectRatio="xMidYMid meet">
<metadata>
Created by potrace 1.14, written by Peter Selinger 2001-2017
</metadata>
<g transform="translate(0.000000,1080.000000) scale(0.100000,-0.100000)"
fill="#000000" stroke="none">
<path d="M0 10466 c0 -213 4 -337 10 -341 7 -4 7 -12 0 -25 -7 -12 -10 -502
-10 -1420 l0 -1401 20 6 c27 8 50 -11 50 -41 0 -26 -30 -47 -54 -38 -14 6 -16
-46 -16 -523 l0 -530 30 5 c25 3 30 0 35 -21 4 -14 4 -31 0 -36 -9 -15 -52
-14 -58 2 -3 6 -6 -1364 -6 -3045 l-1 -3058 5400 0 5400 0 0 5400 0 5400
-5400 0 -5400 0 0 -334z m550 254 c-6 -11 -15 -20 -21 -20 -13 0 -22 27 -15
45 4 13 10 14 26 5 16 -9 18 -15 10 -30z m7502 8 c-15 -15 -26 -4 -18 18 5 13
9 15 18 6 9 -9 9 -15 0 -24z m-5722 2 c0 -11 -7 -20 -15 -20 -8 0 -15 9 -15
20 0 11 7 20 15 20 8 0 15 -9 15 -20z m4075 10 c3 -5 -1 -10 -10 -10 -9 0 -13
5 -10 10 3 6 8 10 10 10 2 0 7 -4 10 -10z m-1180 -35 c0 -25 -4 -30 -25 -30
-28 0 -39 27 -19 51 20 24 44 13 44 -21z m-3495 0 c0 -8 -7 -15 -15 -15 -8 0
-15 7 -15 15 0 8 7 15 15 15 8 0 15 -7 15 -15z m2400 6 c0 -14 -18 -23 -30
-16 -6 4 -8 11 -5 16 8 12 35 12 35 0z m5930 -17 c0 -8 -7 -14 -15 -14 -15 0
-21 21 -9 33 10 9 24 -2 24 -19z m-4326 -5 c-3 -5 -10 -7 -15 -3 -5 3 -7 10
-3 15 3 5 10 7 15 3 5 -3 7 -10 3 -15z m4864 -11 c-6 -18 -28 -21 -28 -4 0 9
7 16 16 16 9 0 14 -5 12 -12z m-6728 -8 c0 -5 -4 -10 -10 -10 -5 0 -10 5 -10
10 0 6 5 10 10 10 6 0 10 -4 10 -10z m-1890 -20 c0 -5 -4 -10 -9 -10 -6 0 -13
5 -16 10 -3 6 1 10 9 10 9 0 16 -4 16 -10z m4707 -16 c-9 -9 -28 6 -21 18 4 6
10 6 17 -1 6 -6 8 -13 4 -17z m2611 -2 c2 -7 -3 -12 -12 -12 -9 0 -16 7 -16
16 0 17 22 14 28 -4z m-9108 -2 c0 -5 -4 -10 -10 -10 -5 0 -10 5 -10 10 0 6 5
10 10 10 6 0 10 -4 10 -10z m6040 -20 c0 -5 -7 -10 -15 -10 -8 0 -15 5 -15 10
0 6 7 10 15 10 8 0 15 -4 15 -10z m-5420 -8 c0 -13 -12 -22 -22 -16 -10 6 -1
24 13 24 5 0 9 -4 9 -8z m2140 -18 c0 -17 -22 -14 -28 4 -2 7 3 12 12 12 9 0
16 -7 16 -16z m2000 -34 c0 -11 -7 -20 -15 -20 -8 0 -15 9 -15 20 0 11 7 20
15 20 8 0 15 -9 15 -20z m507 4 c7 -19 -20 -49 -36 -40 -6 4 -11 18 -11 32 0
17 5 24 20 24 11 0 23 -7 27 -16z m-857 -14 c0 -11 -7 -20 -15 -20 -15 0 -21
21 -8 33 12 13 23 7 23 -13z m1148 3 c-5 -25 -28 -28 -28 -4 0 12 6 21 16 21
9 0 14 -7 12 -17z m1232 -13 c0 -19 -11 -26 -23 -14 -8 8 3 34 14 34 5 0 9 -9
9 -20z m550 -1 c0 -11 -4 -17 -10 -14 -5 3 -10 13 -10 21 0 8 5 14 10 14 6 0
10 -9 10 -21z m-3940 -24 c0 -8 -4 -15 -10 -15 -5 0 -10 7 -10 15 0 8 5 15 10
15 6 0 10 -7 10 -15z m-1362 -42 c-4 -22 -22 -20 -26 1 -2 10 3 16 13 16 10 0
15 -7 13 -17z m6012 -3 c0 -13 -7 -20 -20 -20 -13 0 -20 7 -20 20 0 13 7 20
20 20 13 0 20 -7 20 -20z m578 -13 c2 -10 -3 -17 -12 -17 -18 0 -29 16 -21 31
9 14 29 6 33 -14z m-4652 -14 c-3 -8 -6 -17 -6 -19 0 -2 -6 -4 -14 -4 -18 0
-27 25 -14 38 14 14 40 3 34 -15z m-882 1 c7 -19 -10 -44 -30 -44 -15 0 -28
35 -19 50 10 16 42 12 49 -6z m6566 -10 c0 -9 -5 -14 -12 -12 -18 6 -21 28 -4
28 9 0 16 -7 16 -16z m580 7 c0 -6 -4 -13 -10 -16 -5 -3 -10 1 -10 9 0 9 5 16
10 16 6 0 10 -4 10 -9z m-5862 -53 c-3 -25 -17 -32 -37 -19 -19 12 -6 41 19
41 16 0 21 -5 18 -22z m-3210 -6 c2 -7 -3 -12 -12 -12 -9 0 -16 7 -16 16 0 17
22 14 28 -4z m4069 -15 c-6 -20 -27 -19 -27 2 0 14 5 19 15 14 9 -3 14 -10 12
-16z m-2892 -6 c7 -12 -12 -24 -25 -16 -11 7 -4 25 10 25 5 0 11 -4 15 -9z
m8215 -17 c0 -8 -7 -14 -15 -14 -15 0 -21 21 -9 33 10 9 24 -2 24 -19z m-8020
-9 c0 -8 -4 -15 -10 -15 -5 0 -10 7 -10 15 0 8 5 15 10 15 6 0 10 -7 10 -15z
m3980 0 c0 -8 -7 -15 -15 -15 -8 0 -15 7 -15 15 0 8 7 15 15 15 8 0 15 -7 15
-15z m848 -22 c-5 -23 -23 -20 -26 4 -3 18 0 21 13 17 9 -4 15 -13 13 -21z
m1537 8 c3 -5 1 -12 -5 -16 -5 -3 -10 1 -10 9 0 18 6 21 15 7z m-4180 -40
c-10 -16 -25 -3 -25 22 0 20 1 20 16 5 9 -9 13 -21 9 -27z m2185 25 c0 -8 -4
-18 -10 -21 -5 -3 -10 3 -10 14 0 12 5 21 10 21 6 0 10 -6 10 -14z m-772 -57
c3 -29 -20 -54 -43 -45 -15 5 -21 57 -8 70 16 16 48 1 51 -25z m1542 10 c0 -5
-4 -9 -10 -9 -5 0 -10 7 -10 16 0 8 5 12 10 9 6 -3 10 -10 10 -16z m974 -1
c14 -23 -3 -52 -32 -56 -16 -2 -25 4 -34 23 -11 24 -10 29 7 41 24 18 44 15
59 -8z m-6990 -29 c-3 -5 -10 -7 -15 -3 -5 3 -7 10 -3 15 3 5 10 7 15 3 5 -3
7 -10 3 -15z m1416 -23 c0 -8 -4 -17 -9 -21 -12 -7 -24 12 -16 25 9 15 25 12
25 -4z m4998 -9 c2 -12 -3 -17 -17 -17 -23 0 -24 1 -15 25 8 19 28 15 32 -8z
m2027 -7 c-5 -8 -11 -8 -17 -2 -6 6 -7 16 -3 22 5 8 11 8 17 2 6 -6 7 -16 3
-22z m-9925 10 c0 -5 -4 -10 -10 -10 -5 0 -10 5 -10 10 0 6 5 10 10 10 6 0 10
-4 10 -10z m735 -8 c0 -18 -20 -15 -23 4 -3 10 1 15 10 12 7 -3 13 -10 13 -16z
m1253 -23 c-2 -6 -8 -10 -13 -10 -5 0 -11 4 -13 10 -2 6 4 11 13 11 9 0 15 -5
13 -11z m1922 -15 c0 -8 -4 -14 -10 -14 -5 0 -10 9 -10 21 0 11 5 17 10 14 6
-3 10 -13 10 -21z m1398 3 c2 -10 -3 -17 -12 -17 -10 0 -16 9 -16 21 0 24 23
21 28 -4z m328 -14 c-10 -10 -19 5 -10 18 6 11 8 11 12 0 2 -7 1 -15 -2 -18z
m2654 -9 c0 -16 -16 -19 -25 -4 -8 13 4 32 16 25 5 -4 9 -13 9 -21z m-1982 5
c-2 -6 -8 -10 -13 -10 -5 0 -11 4 -13 10 -2 6 4 11 13 11 9 0 15 -5 13 -11z
m622 -4 c0 -8 -4 -15 -9 -15 -13 0 -22 16 -14 24 11 11 23 6 23 -9z m-4434
-36 c3 -6 1 -16 -5 -22 -9 -9 -14 -8 -21 3 -9 15 -4 30 10 30 5 0 12 -5 16
-11z m734 -4 c0 -8 -4 -15 -10 -15 -5 0 -10 7 -10 15 0 8 5 15 10 15 6 0 10
-7 10 -15z m6030 -10 c0 -8 -4 -15 -10 -15 -5 0 -10 7 -10 15 0 8 5 15 10 15
6 0 10 -7 10 -15z m800 6 c0 -12 -20 -25 -27 -18 -7 7 6 27 18 27 5 0 9 -4 9
-9z m-8998 -16 c0 -5 -5 -11 -11 -13 -6 -2 -11 4 -11 13 0 9 5 15 11 13 6 -2
11 -8 11 -13z m4912 -4 c3 -5 -1 -14 -8 -20 -16 -13 -32 2 -21 19 8 12 22 13
29 1z m734 -39 c2 -7 -6 -12 -17 -12 -21 0 -27 11 -14 24 9 9 26 2 31 -12z
m3612 -7 c0 -8 -7 -15 -15 -15 -16 0 -20 12 -8 23 11 12 23 8 23 -8z m-1330
-55 c0 -5 -4 -10 -10 -10 -5 0 -10 5 -10 10 0 6 5 10 10 10 6 0 10 -4 10 -10z
m-4044 -11 c10 -17 -13 -36 -27 -22 -12 12 -4 33 11 33 5 0 12 -5 16 -11z
m-3286 -19 c0 -11 -7 -20 -15 -20 -8 0 -15 9 -15 20 0 11 7 20 15 20 8 0 15
-9 15 -20z m767 4 c8 -21 -13 -42 -28 -27 -13 13 -5 43 11 43 6 0 13 -7 17
-16z m-1967 -14 c0 -5 -4 -10 -10 -10 -5 0 -10 5 -10 10 0 6 5 10 10 10 6 0
10 -4 10 -10z m240 0 c0 -5 -4 -10 -10 -10 -5 0 -10 5 -10 10 0 6 5 10 10 10
6 0 10 -4 10 -10z m2125 -20 c-3 -5 -10 -10 -16 -10 -5 0 -9 5 -9 10 0 6 7 10
16 10 8 0 12 -4 9 -10z m760 -21 c0 -15 -7 -25 -17 -27 -13 -3 -18 3 -18 21 0
13 3 27 7 31 13 12 28 -1 28 -25z m6205 16 c0 -8 -7 -15 -15 -15 -8 0 -15 7
-15 15 0 8 7 15 15 15 8 0 15 -7 15 -15z m-2530 -3 c0 -13 -12 -22 -22 -16
-10 6 -1 24 13 24 5 0 9 -4 9 -8z m-5002 -25 c2 -10 -3 -17 -12 -17 -10 0 -16
9 -16 21 0 24 23 21 28 -4z m2112 8 c13 -16 6 -35 -15 -35 -18 0 -28 17 -21
35 7 19 20 19 36 0z m250 0 c0 -8 -7 -15 -15 -15 -8 0 -15 7 -15 15 0 8 7 15
15 15 8 0 15 -7 15 -15z m1004 -1 c8 -20 -1 -34 -20 -34 -8 0 -14 8 -14 18 0
33 23 44 34 16z m746 -19 c0 -19 -20 -29 -32 -17 -8 8 -7 16 2 26 14 17 30 12
30 -9z m-3230 -22 c0 -17 -19 -35 -29 -29 -18 12 -12 36 9 36 11 0 20 -3 20
-7z m998 -24 c-2 -6 -8 -10 -13 -10 -5 0 -11 4 -13 10 -2 6 4 11 13 11 9 0 15
-5 13 -11z m3542 -4 c0 -8 -4 -15 -10 -15 -5 0 -10 7 -10 15 0 8 5 15 10 15 6
0 10 -7 10 -15z m-7870 -5 c0 -5 -4 -10 -10 -10 -5 0 -10 5 -10 10 0 6 5 10
10 10 6 0 10 -4 10 -10z m5538 -18 c3 -20 0 -23 -20 -20 -15 2 -24 11 -26 26
-3 20 0 23 20 20 15 -2 24 -11 26 -26z m1422 7 c0 -24 -23 -21 -28 4 -2 10 3
17 12 17 10 0 16 -9 16 -21z m-4020 -50 c0 -5 -4 -9 -10 -9 -5 0 -10 7 -10 16
0 8 5 12 10 9 6 -3 10 -10 10 -16z m1090 7 c0 -8 -4 -18 -10 -21 -5 -3 -10 3
-10 14 0 12 5 21 10 21 6 0 10 -6 10 -14z m-2310 -31 c0 -8 -4 -15 -10 -15 -5
0 -10 7 -10 15 0 8 5 15 10 15 6 0 10 -7 10 -15z m5820 -15 c0 -11 -6 -20 -14
-20 -18 0 -29 16 -21 30 11 18 35 11 35 -10z m-2983 -16 c-9 -9 -28 6 -21 18
4 6 10 6 17 -1 6 -6 8 -13 4 -17z m-4174 2 c6 -15 -1 -26 -15 -26 -4 0 -8 9
-8 20 0 23 15 27 23 6z m4887 -14 c0 -19 -18 -42 -32 -42 -10 0 -11 44 -1 53
13 14 33 7 33 -11z m-4000 -10 c0 -13 -12 -22 -22 -16 -10 6 -1 24 13 24 5 0
9 -4 9 -8z m5478 -15 c4 -20 -25 -34 -39 -20 -14 14 1 45 20 41 9 -2 17 -11
19 -21z m-4548 -6 c0 -11 -5 -23 -11 -27 -15 -9 -33 12 -26 30 9 23 37 20 37
-3z m1003 4 c1 -5 -6 -11 -15 -13 -11 -2 -18 3 -18 13 0 17 30 18 33 0z m5597
-26 c0 -5 -7 -9 -15 -9 -15 0 -20 12 -9 23 8 8 24 -1 24 -14z m660 -9 c0 -30
-24 -51 -47 -43 -14 5 -18 55 -6 66 3 4 17 7 30 7 19 0 23 -5 23 -30z m-6593
-6 c8 -21 -13 -42 -28 -27 -13 13 -5 43 11 43 6 0 13 -7 17 -16z m-2160 -70
c-9 -9 -28 6 -21 18 4 6 10 6 17 -1 6 -6 8 -13 4 -17z m1168 -4 c-5 -8 -11 -8
-17 -2 -6 6 -7 16 -3 22 5 8 11 8 17 2 6 -6 7 -16 3 -22z m7155 14 c0 -8 -4
-12 -10 -9 -5 3 -10 10 -10 16 0 5 5 9 10 9 6 0 10 -7 10 -16z m1295 -14 c-5
-8 -11 -8 -17 -2 -6 6 -7 16 -3 22 5 8 11 8 17 2 6 -6 7 -16 3 -22z m-4165
-20 c0 -23 -4 -30 -20 -30 -14 0 -20 7 -20 23 0 27 7 37 27 37 8 0 13 -12 13
-30z m-3723 4 c3 -8 -1 -23 -10 -32 -15 -14 -17 -14 -23 1 -8 21 1 47 16 47 6
0 13 -7 17 -16z m1433 -9 c0 -19 -20 -29 -32 -17 -8 8 -7 16 2 26 14 17 30 12
30 -9z m4545 15 c3 -5 -1 -10 -9 -10 -9 0 -16 5 -16 10 0 6 4 10 9 10 6 0 13
-4 16 -10z m-4855 -40 c0 -5 -4 -10 -10 -10 -5 0 -10 5 -10 10 0 6 5 10 10 10
6 0 10 -4 10 -10z m1600 -11 c0 -5 -7 -9 -15 -9 -15 0 -20 12 -9 23 8 8 24 -1
24 -14z m1606 -8 c-10 -16 -36 -13 -36 3 0 17 21 27 34 16 4 -5 5 -13 2 -19z
m944 5 c0 -20 -19 -31 -32 -18 -6 6 -7 15 -4 21 10 16 36 13 36 -3z m-4420
-22 c0 -8 -4 -14 -10 -14 -5 0 -10 9 -10 21 0 11 5 17 10 14 6 -3 10 -13 10
-21z m3928 -23 c-2 -9 -11 -17 -21 -19 -21 -4 -35 27 -17 38 19 12 42 0 38
-19z m-6890 -12 c-2 -6 -8 -10 -13 -10 -5 0 -11 4 -13 10 -2 6 4 11 13 11 9 0
15 -5 13 -11z m2318 3 c32 -22 15 -78 -22 -70 -30 5 -32 78 -2 78 7 0 18 -4
24 -8z m4369 -21 c3 -5 1 -12 -5 -16 -5 -3 -10 1 -10 9 0 18 6 21 15 7z m1718
-6 c-6 -17 -25 -15 -31 3 -2 7 5 12 17 12 14 0 19 -5 14 -15z m-4663 -5 c0 -5
-4 -10 -10 -10 -5 0 -10 5 -10 10 0 6 5 10 10 10 6 0 10 -4 10 -10z m1610 -15
c0 -8 -7 -15 -15 -15 -8 0 -15 7 -15 15 0 8 7 15 15 15 8 0 15 -7 15 -15z
m-4086 -12 c8 -21 -10 -41 -24 -27 -11 11 -3 44 10 44 4 0 11 -8 14 -17z
m8361 8 c7 -12 -12 -24 -25 -16 -11 7 -4 25 10 25 5 0 11 -4 15 -9z m-5285
-41 c0 -5 -2 -10 -4 -10 -3 0 -8 5 -11 10 -3 6 -1 10 4 10 6 0 11 -4 11 -10z
m3457 -27 c-16 -16 -17 -16 -17 3 0 11 3 24 7 28 4 3 11 2 17 -4 7 -7 5 -16
-7 -27z m-3152 -13 c0 -22 -29 -18 -33 3 -3 14 1 18 15 15 10 -2 18 -10 18
-18z m-1923 -5 c0 -5 -5 -11 -11 -13 -6 -2 -11 4 -11 13 0 9 5 15 11 13 6 -2
11 -8 11 -13z m3666 3 c18 -18 14 -46 -7 -58 -30 -15 -40 -12 -47 15 -10 42
26 71 54 43z m-6740 -25 c4 -26 -37 -57 -62 -47 -19 7 -21 27 -5 55 15 28 63
22 67 -8z m1036 -29 c11 -29 6 -53 -14 -64 -42 -22 -82 34 -48 68 17 17 55 15
62 -4z m7864 -4 c17 -28 -1 -60 -34 -60 -29 0 -47 35 -32 63 12 23 50 22 66
-3z m-7364 -5 c3 -9 0 -15 -9 -15 -8 0 -15 7 -15 15 0 8 4 15 9 15 5 0 11 -7
15 -15z m1784 3 c30 -30 -2 -93 -36 -71 -21 13 -27 50 -12 69 15 17 32 18 48
2z m933 2 c27 -15 24 -54 -5 -68 -20 -9 -27 -7 -40 7 -20 22 -20 30 1 53 19
21 19 21 44 8z m3209 -10 c0 -24 -26 -38 -42 -22 -16 16 -2 42 22 42 13 0 20
-7 20 -20z m2005 0 c3 -5 1 -10 -4 -10 -6 0 -11 5 -11 10 0 6 2 10 4 10 3 0 8
-4 11 -10z m-8597 -29 c6 -37 -14 -49 -40 -24 -18 19 -19 24 -8 38 18 22 44
15 48 -14z m4489 3 c7 -19 -20 -49 -36 -40 -12 8 -15 39 -4 49 12 12 33 7 40
-9z m1593 -30 c0 -8 -5 -12 -10 -9 -6 4 -8 11 -5 16 9 14 15 11 15 -7z m728
-7 c2 -10 -3 -17 -12 -17 -10 0 -16 9 -16 21 0 24 23 21 28 -4z m-7146 -22 c0
-5 -5 -11 -11 -13 -6 -2 -11 4 -11 13 0 9 5 15 11 13 6 -2 11 -8 11 -13z
m8558 -15 c0 -11 -6 -20 -13 -20 -19 0 -27 10 -20 26 8 21 33 17 33 -6z
m-3110 -31 c0 -7 11 -9 27 -6 24 4 26 4 10 -8 -9 -7 -17 -18 -17 -24 0 -7 -13
-26 -30 -44 -31 -33 -41 -27 -15 7 25 32 18 46 -21 46 -21 0 -33 4 -29 10 3 6
17 10 31 10 13 0 24 5 24 10 0 6 5 10 10 10 6 0 10 -5 10 -11z m-3370 -9 c0
-5 -4 -10 -10 -10 -5 0 -10 5 -10 10 0 6 5 10 10 10 6 0 10 -4 10 -10z m1242
-15 c0 -5 -5 -11 -11 -13 -6 -2 -11 4 -11 13 0 9 5 15 11 13 6 -2 11 -8 11
-13z m6723 -21 c0 -10 -8 -20 -17 -22 -18 -3 -26 27 -11 42 12 11 28 0 28 -20z
m-2113 1 c0 -5 -5 -11 -11 -13 -6 -2 -11 4 -11 13 0 9 5 15 11 13 6 -2 11 -8
11 -13z m-6397 -75 c-5 -8 -11 -8 -17 -2 -6 6 -7 16 -3 22 5 8 11 8 17 2 6 -6
7 -16 3 -22z m5683 -18 c2 -15 -2 -22 -12 -22 -11 0 -16 9 -16 26 0 31 23 28
28 -4z m1882 7 c0 -5 -4 -9 -10 -9 -5 0 -10 7 -10 16 0 8 5 12 10 9 6 -3 10
-10 10 -16z m-5170 -9 c0 -11 -7 -20 -15 -20 -15 0 -21 21 -8 33 12 13 23 7
23 -13z m5688 -3 c2 -10 -3 -17 -12 -17 -10 0 -16 9 -16 21 0 24 23 21 28 -4z
m-4473 -7 c0 -8 -8 -16 -17 -18 -13 -2 -18 3 -18 18 0 15 5 20 18 18 9 -2 17
-10 17 -18z m-5787 -27 c-5 -25 -28 -28 -28 -4 0 12 6 21 16 21 9 0 14 -7 12
-17z m2557 -18 c0 -10 -5 -20 -11 -22 -13 -4 -27 24 -18 38 9 15 29 4 29 -16z
m645 -1 c0 -8 -7 -14 -15 -14 -15 0 -21 21 -9 33 10 9 24 -2 24 -19z m-1850
-3 c0 -5 -7 -14 -15 -21 -13 -10 -15 -9 -15 9 0 12 6 21 15 21 8 0 15 -4 15
-9z m3050 -10 c0 -10 -7 -21 -15 -25 -11 -4 -15 1 -15 19 0 16 6 25 15 25 8 0
15 -9 15 -19z m-2400 -6 c16 -19 6 -45 -19 -45 -23 0 -35 28 -20 46 15 18 24
18 39 -1z m4812 -46 c10 -11 13 -21 8 -24 -15 -9 -12 -42 5 -49 8 -3 15 -10
15 -15 0 -6 -7 -8 -16 -4 -11 4 -22 -1 -30 -12 -14 -18 -14 -18 -14 1 0 30
-20 44 -62 44 -21 0 -38 5 -38 10 0 6 18 10 40 10 45 0 65 24 56 68 -5 24 -5
25 7 8 6 -11 20 -27 29 -37z m-5247 21 c4 -12 1 -27 -5 -35 -21 -26 -57 6 -44
40 9 22 42 18 49 -5z m-1227 -52 c-2 -13 -7 -23 -13 -23 -5 0 -11 10 -13 23
-2 15 2 22 13 22 11 0 15 -7 13 -22z m5848 -17 c-10 -16 -23 -14 -30 5 -9 25
4 38 21 21 9 -8 12 -20 9 -26z m-816 4 c0 -18 -5 -25 -20 -25 -20 0 -28 28
-13 43 15 16 33 6 33 -18z m-1570 -10 c25 -30 -16 -79 -46 -54 -17 14 -18 56
-1 62 22 9 34 7 47 -8z m950 -27 c0 -12 -28 -10 -35 2 -4 6 -4 19 0 28 6 16 8
15 21 -2 8 -11 14 -23 14 -28z m1705 7 c0 -23 -4 -30 -20 -30 -21 0 -31 25
-21 51 11 28 41 12 41 -21z m-5375 -19 c-13 -13 -35 7 -25 24 5 8 11 8 21 -1
10 -8 12 -15 4 -23z m1075 -6 c0 -18 -6 -26 -23 -28 -27 -4 -40 22 -22 44 19
22 45 13 45 -16z m8425 15 c0 -8 -7 -15 -15 -15 -8 0 -15 7 -15 15 0 8 7 15
15 15 8 0 15 -7 15 -15z m-5570 -10 c0 -8 -7 -15 -15 -15 -8 0 -15 7 -15 15 0
8 7 15 15 15 8 0 15 -7 15 -15z m3265 5 c-3 -5 -10 -10 -16 -10 -5 0 -9 5 -9
10 0 6 7 10 16 10 8 0 12 -4 9 -10z m535 0 c0 -5 -4 -10 -10 -10 -5 0 -10 5
-10 10 0 6 5 10 10 10 6 0 10 -4 10 -10z m-5390 -26 c0 -8 -4 -14 -10 -14 -5
0 -10 9 -10 21 0 11 5 17 10 14 6 -3 10 -13 10 -21z m3808 -6 c-6 -18 -28 -21
-28 -4 0 9 7 16 16 16 9 0 14 -5 12 -12z m-5455 -33 c1 -5 -6 -11 -15 -13 -11
-2 -18 3 -18 13 0 17 30 18 33 0z m937 0 c0 -8 -7 -15 -15 -15 -8 0 -15 7 -15
15 0 8 7 15 15 15 8 0 15 -7 15 -15z m1725 -10 c0 -10 -6 -20 -12 -22 -8 -3
-13 5 -13 22 0 17 5 25 13 23 6 -3 12 -13 12 -23z m3375 15 c0 -5 -7 -10 -15
-10 -8 0 -15 5 -15 10 0 6 7 10 15 10 8 0 15 -4 15 -10z m1640 1 c0 -6 -4 -13
-10 -16 -5 -3 -10 1 -10 9 0 9 5 16 10 16 6 0 10 -4 10 -9z m-9086 -20 c3 -5
-1 -14 -9 -21 -13 -10 -15 -9 -15 9 0 21 14 28 24 12z m9264 -18 c-5 -25 -28
-28 -28 -4 0 12 6 21 16 21 9 0 14 -7 12 -17z m652 2 c0 -8 -4 -15 -10 -15 -5
0 -10 7 -10 15 0 8 5 15 10 15 6 0 10 -7 10 -15z m-5308 -37 c-9 -9 -12 -7
-12 12 0 19 3 21 12 12 9 -9 9 -15 0 -24z m590 -10 c-9 -9 -12 -7 -12 12 0 19
3 21 12 12 9 -9 9 -15 0 -24z m3568 -8 c0 -5 -7 -10 -15 -10 -8 0 -15 5 -15
10 0 6 7 10 15 10 8 0 15 -4 15 -10z m-6860 -20 c0 -5 -4 -10 -10 -10 -5 0
-10 5 -10 10 0 6 5 10 10 10 6 0 10 -4 10 -10z m870 2 c0 -13 -12 -22 -22 -16
-10 6 -1 24 13 24 5 0 9 -4 9 -8z m2134 -38 c8 -21 -1 -34 -25 -34 -12 0 -19
7 -19 18 0 34 33 45 44 16z m-754 -3 c0 -6 -4 -13 -10 -16 -5 -3 -10 1 -10 9
0 9 5 16 10 16 6 0 10 -4 10 -9z m1216 -56 c-3 -9 -14 -15 -23 -13 -22 4 -30
38 -11 49 18 11 43 -15 34 -36z m344 30 c0 -8 -7 -15 -15 -15 -16 0 -20 12 -8
23 11 12 23 8 23 -8z m-1110 -12 c0 -28 -16 -47 -34 -40 -9 4 -16 18 -16 32 0
20 5 25 25 25 17 0 25 -5 25 -17z m-2576 -29 c22 -21 20 -51 -3 -64 -25 -13
-45 -5 -61 25 -24 44 28 75 64 39z m5136 0 c0 -8 -5 -12 -10 -9 -6 4 -8 11 -5
16 9 14 15 11 15 -7z m-6040 -18 c0 -16 -18 -31 -27 -22 -8 8 5 36 17 36 5 0
10 -6 10 -14z m6396 -12 c8 -33 -15 -52 -33 -27 -9 11 -9 21 -2 34 14 26 27
24 35 -7z m-5914 1 c0 -5 -5 -11 -11 -13 -6 -2 -11 4 -11 13 0 9 5 15 11 13 6
-2 11 -8 11 -13z m4618 -30 c18 -22 -2 -65 -30 -65 -26 0 -36 24 -22 56 13 27
34 31 52 9z m-6170 -30 c0 -8 -7 -15 -15 -15 -16 0 -20 12 -8 23 11 12 23 8
23 -8z m9200 -10 c0 -8 -9 -15 -20 -15 -13 0 -18 5 -14 15 4 8 12 15 20 15 8
0 14 -7 14 -15z m-5482 -7 c-6 -18 -28 -21 -28 -4 0 9 7 16 16 16 9 0 14 -5
12 -12z m5190 -15 c-5 -26 -38 -29 -38 -4 0 15 6 21 21 21 14 0 19 -5 17 -17z
m-7439 -2 c17 -11 7 -41 -14 -41 -9 0 -15 9 -15 25 0 27 6 30 29 16z m5781
-11 c0 -5 -4 -10 -10 -10 -5 0 -10 5 -10 10 0 6 5 10 10 10 6 0 10 -4 10 -10z
m2690 -9 c0 -6 -4 -13 -10 -16 -5 -3 -10 1 -10 9 0 9 5 16 10 16 6 0 10 -4 10
-9z m290 -1 c0 -5 -7 -10 -15 -10 -8 0 -15 5 -15 10 0 6 7 10 15 10 8 0 15 -4
15 -10z m-6186 -9 c10 -16 -5 -41 -24 -41 -23 0 -34 16 -26 35 6 16 42 20 50
6z m3866 -11 c0 -5 -2 -10 -4 -10 -3 0 -8 5 -11 10 -3 6 -1 10 4 10 6 0 11 -4
11 -10z m405 -15 c0 -28 -29 -25 -33 3 -3 19 0 23 15 20 10 -2 18 -12 18 -23z
m-8155 1 c0 -16 -18 -31 -27 -22 -8 8 5 36 17 36 5 0 10 -6 10 -14z m6250 4
c0 -5 -7 -10 -15 -10 -8 0 -15 5 -15 10 0 6 7 10 15 10 8 0 15 -4 15 -10z
m-3776 -37 c8 -19 -17 -48 -33 -39 -6 4 -11 18 -11 32 0 28 34 34 44 7z m2456
7 c0 -5 -7 -10 -15 -10 -8 0 -15 5 -15 10 0 6 7 10 15 10 8 0 15 -4 15 -10z
m-5480 -14 c0 -16 -18 -31 -27 -22 -8 8 5 36 17 36 5 0 10 -6 10 -14z m6251
-62 c10 -13 25 -15 69 -11 52 5 54 4 25 -9 -16 -7 -37 -13 -45 -14 -32 0 -60
-30 -60 -63 0 -58 -17 -62 -24 -7 -8 57 -1 55 -86 34 -25 -5 -25 -5 3 13 15
10 27 23 27 30 0 8 12 13 30 13 29 0 30 2 31 48 1 44 2 45 9 15 4 -18 14 -40
21 -49z m-5181 41 c0 -15 -26 -32 -36 -23 -2 3 -2 13 2 22 8 20 34 21 34 1z
m8378 -14 c5 -30 -10 -45 -37 -36 -23 7 -28 34 -9 53 19 19 43 10 46 -17z
m-7850 -9 c2 -14 -2 -22 -12 -22 -19 0 -29 17 -22 36 8 22 30 12 34 -14z
m5572 18 c0 -5 -2 -10 -4 -10 -3 0 -8 5 -11 10 -3 6 -1 10 4 10 6 0 11 -4 11
-10z m-1920 -26 c0 -14 -12 -19 -23 -8 -9 9 4 35 14 28 5 -3 9 -12 9 -20z
m710 6 c0 -11 -4 -20 -9 -20 -14 0 -23 18 -16 30 10 17 25 11 25 -10z m-2480
0 c0 -5 -4 -10 -9 -10 -6 0 -13 5 -16 10 -3 6 1 10 9 10 9 0 16 -4 16 -10z
m1228 -25 c3 -19 -2 -33 -14 -42 -25 -18 -54 1 -54 36 0 35 8 43 40 39 19 -2
26 -9 28 -33z m5930 4 c-2 -6 -8 -10 -13 -10 -5 0 -11 4 -13 10 -2 6 4 11 13
11 9 0 15 -5 13 -11z m-9892 -20 c3 -6 2 -15 -2 -19 -12 -12 -38 5 -30 19 9
14 23 14 32 0z m1814 -3 c0 -3 -4 -8 -10 -11 -5 -3 -10 -1 -10 4 0 6 5 11 10
11 6 0 10 -2 10 -4z m7678 -27 c-2 -6 -8 -10 -13 -10 -5 0 -11 4 -13 10 -2 6
4 11 13 11 9 0 15 -5 13 -11z m-2127 -20 c9 -17 8 -25 -5 -37 -12 -13 -18 -13
-30 -2 -16 13 -21 42 -9 53 13 13 32 7 44 -14z m-781 -5 c0 -17 -22 -14 -28 4
-2 7 3 12 12 12 9 0 16 -7 16 -16z m-398 -9 c0 -5 -5 -11 -11 -13 -6 -2 -11 4
-11 13 0 9 5 15 11 13 6 -2 11 -8 11 -13z m-5807 -46 c0 -7 -8 -15 -17 -17
-18 -3 -25 18 -11 32 10 10 28 1 28 -15z m2415 11 c0 -5 -7 -10 -15 -10 -8 0
-15 5 -15 10 0 6 7 10 15 10 8 0 15 -4 15 -10z m2020 -5 c16 -19 3 -57 -18
-53 -18 3 -27 30 -18 54 7 18 20 18 36 -1z m-1766 -11 c17 -43 1 -70 -34 -59
-20 6 -29 53 -13 68 12 13 41 7 47 -9z m5237 -81 c12 -37 13 -37 40 -23 21 12
26 1 7 -19 -11 -10 -9 -15 6 -27 19 -14 19 -14 -1 -14 -17 0 -20 -5 -16 -21 5
-19 4 -20 -16 -7 -20 11 -24 11 -37 -6 -14 -19 -14 -19 -14 3 0 20 -4 22 -26
17 -34 -9 -23 8 16 24 36 15 37 30 10 102 -19 52 -19 53 0 28 11 -14 25 -40
31 -57z m-8861 18 c0 -6 -4 -13 -10 -16 -5 -3 -10 1 -10 9 0 9 5 16 10 16 6 0
10 -4 10 -9z m7680 -11 c0 -5 -4 -10 -10 -10 -5 0 -10 5 -10 10 0 6 5 10 10
10 6 0 10 -4 10 -10z m-7880 -30 c0 -5 -4 -10 -10 -10 -5 0 -10 5 -10 10 0 6
5 10 10 10 6 0 10 -4 10 -10z m2830 -51 c0 -27 2 -29 28 -23 26 7 26 6 10 -13
-14 -15 -15 -22 -6 -31 9 -9 6 -12 -15 -12 -22 0 -27 -4 -27 -26 0 -23 -2 -25
-15 -14 -8 7 -14 19 -13 28 2 9 -10 20 -32 28 -31 11 -32 13 -10 13 35 2 54
16 47 36 -4 9 -3 14 3 10 6 -4 10 5 10 20 0 15 4 24 10 20 6 -3 10 -20 10 -36z
m-1381 17 c15 -18 3 -48 -18 -44 -21 4 -28 58 -8 58 8 0 20 -6 26 -14z m8701
-1 c0 -8 -4 -15 -10 -15 -5 0 -10 7 -10 15 0 8 5 15 10 15 6 0 10 -7 10 -15z
m-5480 -15 c0 -13 -7 -20 -20 -20 -13 0 -20 7 -20 20 0 13 7 20 20 20 13 0 20
-7 20 -20z m910 -6 c0 -8 -7 -14 -15 -14 -15 0 -21 21 -9 33 10 9 24 -2 24
-19z m-410 -14 c0 -5 -4 -10 -10 -10 -5 0 -10 5 -10 10 0 6 5 10 10 10 6 0 10
-4 10 -10z m-220 -26 c0 -16 -16 -19 -25 -4 -8 13 4 32 16 25 5 -4 9 -13 9
-21z m-2904 1 c4 -8 3 -27 0 -41 -5 -20 -12 -25 -34 -22 -28 3 -40 32 -28 64
7 19 55 18 62 -1z m2214 -10 c0 -25 -23 -35 -35 -15 -10 16 2 40 20 40 9 0 15
-9 15 -25z m-930 -13 c0 -13 -31 -52 -41 -52 -5 0 -15 12 -21 26 -10 22 -10
28 6 40 18 13 56 4 56 -14z m2650 -18 c0 -16 -16 -19 -25 -4 -8 13 4 32 16 25
5 -4 9 -13 9 -21z m643 5 c8 -31 -9 -69 -32 -69 -19 0 -31 18 -31 49 0 40 54
57 63 20z m1812 -129 c3 -30 10 -62 15 -70 15 -24 51 4 116 88 93 119 121 145
58 52 -32 -47 -70 -101 -86 -121 -32 -42 -35 -54 -11 -45 10 4 32 -7 62 -32
58 -49 81 -61 134 -72 39 -7 36 -8 -31 -9 -71 -1 -132 -20 -132 -41 0 -6 20
-25 45 -42 25 -17 43 -33 41 -35 -2 -2 -23 6 -47 17 -53 24 -79 25 -80 5 -1
-8 -3 -19 -4 -25 -1 -5 -4 -58 -5 -117 -2 -93 -3 -103 -12 -68 -5 22 -7 57 -5
78 3 21 1 35 -4 31 -5 -3 -9 -12 -9 -20 0 -12 -2 -12 -14 -2 -8 7 -12 15 -10
17 5 5 -23 31 -34 31 -5 0 -22 12 -37 26 -15 14 -31 22 -35 17 -4 -4 -31 -39
-60 -78 -29 -38 -67 -86 -85 -105 -17 -19 -77 -94 -132 -166 -149 -195 -621
-761 -712 -854 -41 -43 -34 -30 35 56 105 132 255 330 356 469 126 174 298
391 403 510 34 39 70 81 81 94 10 13 36 43 57 66 44 50 46 59 10 51 -70 -15
-190 -36 -208 -35 -11 0 29 16 88 35 124 40 152 60 142 106 -4 17 -8 37 -9 46
-2 9 -11 19 -22 23 -17 7 -17 8 4 8 12 1 22 4 22 8 0 4 -39 48 -87 97 -91 93
-84 91 32 -6 84 -70 133 -96 147 -77 5 8 7 66 5 129 -4 113 3 97 18 -40z
m-2744 127 c-1 -12 -15 -9 -19 4 -3 6 1 10 8 8 6 -3 11 -8 11 -12z m3969 -23
c0 -19 -5 -24 -25 -24 -27 0 -35 26 -14 47 17 17 39 4 39 -23z m-2696 -45 c-8
-14 -34 -11 -34 4 0 8 3 17 7 20 9 9 34 -13 27 -24z m-4809 -19 c-3 -5 -10
-10 -16 -10 -5 0 -9 5 -9 10 0 6 7 10 16 10 8 0 12 -4 9 -10z m7793 -12 c-6
-18 -28 -21 -28 -4 0 9 7 16 16 16 9 0 14 -5 12 -12z m584 -3 c0 -5 -5 -11
-11 -13 -6 -2 -11 4 -11 13 0 9 5 15 11 13 6 -2 11 -8 11 -13z m178 -5 c0 -5
-4 -10 -10 -10 -5 0 -10 5 -10 10 0 6 5 10 10 10 6 0 10 -4 10 -10z m-10502
-23 c2 -10 -3 -17 -12 -17 -18 0 -29 16 -21 31 9 14 29 6 33 -14z m8530 -1 c3
-12 -1 -17 -10 -14 -7 3 -15 13 -16 22 -3 12 1 17 10 14 7 -3 15 -13 16 -22z
m-7830 -18 c2 -19 -3 -30 -17 -38 -18 -9 -23 -7 -32 14 -16 33 -5 58 23 54 16
-2 24 -11 26 -30z m8154 0 c-6 -6 -15 -9 -18 -5 -4 3 -4 14 0 23 5 13 9 15 18
6 9 -9 9 -15 0 -24z m-7444 -37 c7 -48 -45 -69 -72 -29 -22 31 -20 53 7 65 28
14 61 -5 65 -36z m-1258 -15 c-13 -13 -35 7 -25 24 5 8 11 8 21 -1 10 -8 12
-15 4 -23z m2425 5 c7 -12 -12 -24 -25 -16 -11 7 -4 25 10 25 5 0 11 -4 15 -9z
m2085 -11 c0 -11 -7 -20 -15 -20 -8 0 -15 9 -15 20 0 11 7 20 15 20 8 0 15 -9
15 -20z m798 -3 c2 -10 -3 -17 -12 -17 -10 0 -16 9 -16 21 0 24 23 21 28 -4z
m3900 11 c17 -17 15 -48 -4 -55 -24 -9 -46 24 -33 48 11 22 20 24 37 7z
m-2568 -38 c0 -5 -7 -10 -15 -10 -8 0 -15 5 -15 10 0 6 7 10 15 10 8 0 15 -4
15 -10z m-2840 -30 c0 -5 -4 -10 -10 -10 -5 0 -10 5 -10 10 0 6 5 10 10 10 6
0 10 -4 10 -10z m1993 -2 c8 -23 -11 -58 -32 -58 -24 0 -37 35 -21 55 15 18
46 19 53 3z m1653 -3 c3 -8 3 -19 -1 -25 -10 -16 -35 7 -28 26 7 18 22 18 29
-1z m-6636 -15 c0 -21 -24 -28 -35 -10 -8 14 3 30 21 30 8 0 14 -9 14 -20z
m2500 -6 c0 -8 -9 -14 -20 -14 -19 0 -27 19 -14 33 10 9 34 -4 34 -19z m5370
-4 c0 -5 -4 -10 -10 -10 -5 0 -10 5 -10 10 0 6 5 10 10 10 6 0 10 -4 10 -10z
m-4722 -23 c2 -12 -3 -17 -17 -17 -15 0 -21 6 -21 21 0 25 33 22 38 -4z m2227
-10 c0 -26 -20 -25 -23 2 -3 16 1 22 10 19 7 -3 13 -12 13 -21z m-5895 -38 c0
-5 -7 -9 -15 -9 -15 0 -20 12 -9 23 8 8 24 -1 24 -14z m8718 9 c-6 -18 -28
-21 -28 -4 0 9 7 16 16 16 9 0 14 -5 12 -12z m-3923 -28 c0 -16 -6 -26 -18
-28 -19 -4 -32 20 -23 44 9 25 41 13 41 -16z m-3045 -6 c0 -8 -7 -14 -15 -14
-15 0 -21 21 -9 33 10 9 24 -2 24 -19z m910 -39 c0 -8 -7 -15 -15 -15 -8 0
-15 7 -15 15 0 8 7 15 15 15 8 0 15 -7 15 -15z m4118 -19 c-2 -13 -12 -22 -25
-24 -19 -3 -23 1 -23 21 0 14 6 27 13 30 22 7 38 -5 35 -27z m2270 3 c4 -34
-20 -54 -47 -39 -38 20 -18 74 24 68 13 -2 21 -12 23 -29z m502 11 c0 -11 -7
-20 -15 -20 -8 0 -15 9 -15 20 0 11 7 20 15 20 8 0 15 -9 15 -20z m-7135 -10
c0 -7 -6 -15 -12 -17 -8 -3 -13 4 -13 17 0 13 5 20 13 18 6 -3 12 -11 12 -18z
m2785 10 c0 -5 -7 -10 -15 -10 -8 0 -15 5 -15 10 0 6 7 10 15 10 8 0 15 -4 15
-10z m-900 -30 c0 -11 -6 -20 -13 -20 -19 0 -27 10 -20 26 8 21 33 17 33 -6z
m-3252 -33 c2 -12 -3 -17 -17 -17 -23 0 -24 1 -15 25 8 19 28 15 32 -8z m2262
-18 c0 -12 -7 -19 -19 -19 -22 0 -34 23 -19 38 15 15 38 3 38 -19z m2178 -17
c2 -15 -2 -22 -12 -22 -11 0 -16 9 -16 26 0 31 23 28 28 -4z m917 18 c8 -13
-14 -42 -26 -34 -5 3 -9 14 -9 25 0 20 24 26 35 9z m-5931 -41 c-10 -16 -24
-9 -24 12 0 18 2 19 15 9 8 -7 12 -16 9 -21z m3491 -19 c0 -36 -29 -33 -33 3
-3 23 0 28 15 25 12 -2 18 -12 18 -28z m-2327 -47 c2 -24 -1 -33 -17 -38 -29
-9 -41 1 -41 34 0 34 8 43 35 39 14 -2 21 -12 23 -35z m4142 12 c17 -20 5 -45
-20 -45 -11 0 -23 7 -26 15 -6 15 11 45 26 45 4 0 13 -7 20 -15z m-784 -87
c27 3 28 3 11 -15 -13 -15 -14 -22 -5 -31 9 -9 7 -12 -9 -12 -16 0 -20 -5 -16
-19 6 -23 -13 -37 -21 -16 -5 14 -9 14 -37 0 l-31 -17 18 31 c22 38 13 50 -45
58 -61 8 -50 20 14 15 l55 -4 1 53 1 54 17 -50 c17 -46 21 -50 47 -47z m-2232
35 c8 -19 -17 -48 -33 -39 -12 8 -15 39 -4 49 12 12 31 7 37 -10z m4186 -3 c0
-11 -4 -20 -10 -20 -5 0 -10 9 -10 20 0 11 5 20 10 20 6 0 10 -9 10 -20z
m-7163 -16 c-9 -9 -28 6 -21 18 4 6 10 6 17 -1 6 -6 8 -13 4 -17z m9288 -8 c0
-40 -27 -56 -54 -32 -12 11 -21 24 -21 31 0 20 24 36 50 33 20 -2 25 -8 25
-32z m-7115 -6 c0 -5 -7 -10 -15 -10 -8 0 -15 5 -15 10 0 6 7 10 15 10 8 0 15
-4 15 -10z m2585 -18 c0 -18 -20 -15 -23 4 -3 10 1 15 10 12 7 -3 13 -10 13
-16z m4885 3 c0 -8 -4 -15 -9 -15 -13 0 -22 16 -14 24 11 11 23 6 23 -9z
m-5065 -35 c0 -18 -6 -26 -23 -28 -13 -2 -25 3 -28 12 -10 26 4 48 28 44 17
-2 23 -10 23 -28z m4479 14 c7 -19 -1 -34 -19 -34 -15 0 -28 27 -19 41 9 14
31 10 38 -7z m-7844 -19 c0 -8 -4 -15 -9 -15 -13 0 -22 16 -14 24 11 11 23 6
23 -9z m-630 -5 c0 -5 -4 -10 -10 -10 -5 0 -10 5 -10 10 0 6 5 10 10 10 6 0
10 -4 10 -10z m375 -15 c0 -10 -5 -20 -11 -22 -13 -4 -27 24 -18 38 9 15 29 4
29 -16z m2280 -5 c8 -24 -1 -40 -21 -40 -17 0 -28 24 -20 45 8 22 34 18 41 -5z
m341 -39 c-9 -13 -36 -15 -36 -2 0 5 3 17 6 26 6 15 8 15 22 2 8 -8 11 -20 8
-26z m5102 16 c2 -10 -3 -17 -12 -17 -10 0 -16 9 -16 21 0 24 23 21 28 -4z
m-4782 -19 c4 -13 1 -24 -7 -29 -14 -9 -49 -12 -49 -5 0 2 -3 11 -6 19 -7 19
22 48 41 41 8 -3 17 -15 21 -26z m3414 16 c0 -8 -5 -12 -10 -9 -6 4 -8 11 -5
16 9 14 15 11 15 -7z m734 -10 c24 -9 19 -42 -9 -70 -21 -21 -29 -23 -40 -14
-18 15 -20 61 -3 78 13 13 28 15 52 6z m100 -35 c-3 -5 -10 -7 -15 -3 -5 3 -7
10 -3 15 3 5 10 7 15 3 5 -3 7 -10 3 -15z m-4004 -8 c0 -11 -5 -23 -11 -27
-15 -9 -33 12 -26 30 9 23 37 20 37 -3z m-1757 -16 c7 -17 -8 -29 -28 -21 -17
6 -9 36 10 36 7 0 15 -7 18 -15z m2647 11 c0 -2 -3 -11 -6 -20 -9 -23 -34 -20
-34 4 0 13 7 20 20 20 11 0 20 -2 20 -4z m1564 -22 c23 -23 20 -51 -9 -70 -30
-20 -51 -13 -67 21 -21 46 40 86 76 49z m2686 -10 c0 -9 -7 -14 -17 -12 -25 5
-28 28 -4 28 12 0 21 -6 21 -16z m-9030 -8 c0 -8 -4 -17 -9 -21 -12 -7 -24 12
-16 25 9 15 25 12 25 -4z m5967 -20 c-4 -9 -11 -16 -17 -16 -11 0 -14 33 -3
43 11 11 26 -10 20 -27z m-2287 -15 c0 -24 -18 -37 -31 -24 -13 13 -1 43 17
43 8 0 14 -9 14 -19z m6230 -1 c0 -5 -7 -10 -16 -10 -8 0 -12 5 -9 10 3 6 10
10 16 10 5 0 9 -4 9 -10z m-10472 -17 c-4 -22 -22 -20 -26 1 -2 10 3 16 13 16
10 0 15 -7 13 -17z m6220 5 c18 -18 14 -45 -7 -51 -22 -5 -41 10 -41 33 0 31
26 40 48 18z m1062 -9 c0 -5 -7 -9 -15 -9 -15 0 -20 12 -9 23 8 8 24 -1 24
-14z m2970 -5 c0 -8 -7 -14 -15 -14 -15 0 -21 21 -9 33 10 9 24 -2 24 -19z
m-7244 -23 c-11 -18 -36 -13 -36 7 0 10 3 22 7 26 10 10 37 -20 29 -33z m5784
31 c0 -13 -12 -22 -22 -16 -10 6 -1 24 13 24 5 0 9 -4 9 -8z m-5540 -53 c0
-10 -7 -19 -15 -19 -15 0 -21 31 -9 43 11 10 24 -3 24 -24z m-552 12 c8 -5 12
-21 10 -37 -2 -22 -9 -30 -27 -32 -38 -6 -54 33 -25 62 18 18 24 19 42 7z
m1295 3 c9 -10 -4 -34 -19 -34 -8 0 -14 9 -14 20 0 19 19 27 33 14z m1921 -71
c2 -3 21 3 41 11 50 21 52 20 16 -10 -37 -31 -39 -46 -8 -68 22 -17 22 -17
-10 -13 -32 3 -33 2 -33 -32 l-1 -36 -14 33 c-16 37 -19 37 -69 17 -32 -14
-36 -14 -36 0 0 8 3 15 8 15 4 1 20 11 36 24 l29 24 -29 27 c-22 20 -24 25 -9
20 43 -15 50 -11 54 30 l4 40 9 -39 c4 -22 10 -41 12 -43z m3466 61 c0 -17
-22 -14 -28 4 -2 7 3 12 12 12 9 0 16 -7 16 -16z m-7405 -44 c0 -8 -8 -16 -17
-18 -13 -2 -18 3 -18 18 0 15 5 20 18 18 9 -2 17 -10 17 -18z m4779 4 c8 -20
-1 -34 -20 -34 -8 0 -14 8 -14 18 0 33 23 44 34 16z m2346 12 c0 -3 -4 -8 -10
-11 -5 -3 -10 -1 -10 4 0 6 5 11 10 11 6 0 10 -2 10 -4z m-950 -45 c0 -10 -9
-26 -20 -36 -16 -15 -22 -15 -35 -5 -34 28 -2 90 36 70 10 -6 19 -19 19 -29z
m1885 -1 c0 -36 -29 -33 -33 3 -3 23 0 28 15 25 12 -2 18 -12 18 -28z m-8415
-10 c0 -11 -4 -20 -10 -20 -5 0 -10 2 -10 4 0 2 -3 11 -6 20 -4 11 -1 16 10
16 9 0 16 -8 16 -20z m-760 -5 c0 -8 -4 -15 -10 -15 -5 0 -10 7 -10 15 0 8 5
15 10 15 6 0 10 -7 10 -15z m-540 -13 c0 -13 -12 -22 -22 -16 -10 6 -1 24 13
24 5 0 9 -4 9 -8z m6766 -19 c-10 -10 -19 5 -10 18 6 11 8 11 12 0 2 -7 1 -15
-2 -18z m-1912 -8 c8 -23 -4 -45 -24 -45 -25 0 -33 16 -20 40 13 24 35 26 44
5z m4591 -15 c-5 -8 -11 -8 -17 -2 -6 6 -7 16 -3 22 5 8 11 8 17 2 6 -6 7 -16
3 -22z m-8590 -5 c0 -11 -8 -21 -17 -23 -14 -3 -18 3 -18 23 0 20 4 26 18 23
9 -2 17 -12 17 -23z m1230 -15 c9 -15 -4 -50 -20 -50 -16 0 -26 25 -19 45 7
17 30 20 39 5z m2393 -53 c3 -23 0 -27 -22 -27 -21 0 -26 5 -26 23 0 13 3 27
7 31 15 14 38 0 41 -27z m3978 -12 c7 -28 -7 -51 -37 -60 -25 -8 -49 11 -49
39 0 30 18 46 52 46 21 0 29 -6 34 -25z m-326 -39 c0 -3 -4 -8 -10 -11 -5 -3
-10 -1 -10 4 0 6 5 11 10 11 6 0 10 -2 10 -4z m-2642 -17 c-2 -6 -8 -10 -13
-10 -5 0 -11 4 -13 10 -2 6 4 11 13 11 9 0 15 -5 13 -11z m1397 -19 c0 -16 -6
-26 -18 -28 -19 -4 -32 20 -23 44 9 25 41 13 41 -16z m1865 10 c0 -11 -7 -20
-15 -20 -8 0 -15 9 -15 20 0 11 7 20 15 20 8 0 15 -9 15 -20z m-5952 -26 c-4
-23 -26 -30 -34 -10 -8 20 15 51 29 37 5 -5 7 -17 5 -27z m430 2 c-4 -28 -48
-36 -48 -9 0 11 5 24 11 30 17 17 40 4 37 -21z m-1298 -5 c0 -22 -15 -35 -30
-26 -7 4 -7 13 0 26 14 25 30 25 30 0z m510 -1 c0 -11 -7 -20 -15 -20 -8 0
-15 9 -15 20 0 11 7 20 15 20 8 0 15 -9 15 -20z m2680 -21 c0 -22 -5 -29 -19
-29 -24 0 -37 36 -21 55 17 21 40 6 40 -26z m-330 13 c0 -21 -18 -42 -37 -42
-13 0 -18 41 -6 53 14 14 43 7 43 -11z m-3516 -33 c-3 -5 -10 -7 -15 -3 -5 3
-7 10 -3 15 3 5 10 7 15 3 5 -3 7 -10 3 -15z m-1204 -15 c0 -8 -4 -14 -10 -14
-5 0 -10 9 -10 21 0 11 5 17 10 14 6 -3 10 -13 10 -21z m653 13 c7 -19 -8 -41
-22 -33 -16 10 -14 46 3 46 8 0 16 -6 19 -13z m7615 1 c18 -18 14 -38 -7 -38
-23 0 -35 15 -27 35 7 18 18 19 34 3z m-7737 -38 c24 -14 24 -32 -1 -55 -22
-20 -44 -15 -59 14 -8 15 -7 23 5 35 18 19 28 20 55 6z m8937 -13 c2 -10 -3
-17 -12 -17 -18 0 -29 16 -21 31 9 14 29 6 33 -14z m-5398 -7 c0 -13 -7 -20
-20 -20 -13 0 -20 7 -20 20 0 13 7 20 20 20 13 0 20 -7 20 -20z m-3130 -5 c0
-8 -7 -15 -15 -15 -8 0 -15 7 -15 15 0 8 7 15 15 15 8 0 15 -7 15 -15z m-1260
-10 c0 -8 -4 -15 -10 -15 -5 0 -10 7 -10 15 0 8 5 15 10 15 6 0 10 -7 10 -15z
m3340 -73 c0 -13 -12 -22 -22 -16 -10 6 -1 24 13 24 5 0 9 -4 9 -8z m738 -14
c-3 -7 -11 -13 -18 -13 -7 0 -15 6 -17 13 -3 7 4 12 17 12 13 0 20 -5 18 -12z
m3390 -15 c-5 -26 -38 -29 -38 -4 0 15 6 21 21 21 14 0 19 -5 17 -17z m-3874
-34 l6 -27 57 23 c77 31 118 41 109 27 -4 -6 -34 -21 -67 -33 -65 -24 -80 -37
-57 -50 8 -4 26 -17 39 -29 l24 -20 -39 6 -39 7 6 -54 7 -54 -18 50 c-9 27
-24 51 -32 53 -9 1 -35 -14 -58 -34 -56 -48 -64 -38 -13 17 23 24 41 49 41 56
0 6 -15 23 -32 38 l-33 26 32 -15 c46 -23 53 -20 54 22 1 38 3 36 13 -9z
m-1584 6 c10 -12 10 -18 0 -30 -16 -19 -39 -19 -46 0 -6 15 11 45 26 45 4 0
13 -7 20 -15z m3175 -15 c8 -24 -1 -40 -21 -40 -8 0 -14 10 -14 23 0 40 24 51
35 17z m2545 -5 c0 -8 -7 -15 -15 -15 -8 0 -15 7 -15 15 0 8 7 15 15 15 8 0
15 -7 15 -15z m1370 0 c0 -8 -7 -15 -15 -15 -8 0 -15 7 -15 15 0 8 7 15 15 15
8 0 15 -7 15 -15z m-8706 -17 c15 -25 -4 -53 -35 -53 -17 0 -25 6 -27 23 -7
46 38 67 62 30z m8094 -5 c-4 -34 -33 -43 -43 -14 -8 27 1 41 26 41 16 0 20
-6 17 -27z m-7718 -12 c0 -6 -4 -13 -10 -16 -5 -3 -10 1 -10 9 0 9 5 16 10 16
6 0 10 -4 10 -9z m9671 -14 c-13 -13 -26 -3 -16 12 3 6 11 8 17 5 6 -4 6 -10
-1 -17z m-3762 -6 c13 -24 -9 -57 -33 -48 -19 7 -21 38 -4 55 17 17 26 15 37
-7z m3216 -1 c0 -22 -29 -18 -33 3 -3 14 1 18 15 15 10 -2 18 -10 18 -18z
m-8417 -31 c4 -19 -19 -31 -38 -19 -18 11 -4 42 17 38 10 -2 19 -10 21 -19z
m930 -21 c-5 -34 -38 -37 -38 -4 0 20 5 26 21 26 15 0 20 -5 17 -22z m2715 -5
c-3 -7 0 -13 6 -13 7 0 14 6 17 13 6 18 81 8 152 -20 27 -11 103 -24 220 -39
34 -4 52 -12 52 -20 0 -8 2 -14 4 -14 2 0 13 -3 23 -7 16 -6 16 -4 -2 17 l-20
23 20 -8 c11 -4 30 -10 43 -12 12 -3 22 -9 22 -13 0 -21 85 -37 205 -40 17 0
17 -2 5 -10 -12 -7 -8 -10 15 -10 30 0 132 -37 157 -57 13 -11 92 -29 116 -26
6 0 12 -3 12 -7 0 -4 16 -4 35 0 20 4 38 4 41 -1 9 -15 -6 -47 -24 -52 -12 -3
-11 -5 6 -6 12 0 22 3 22 7 0 14 154 -29 172 -48 11 -12 25 -16 38 -13 15 4
21 1 19 -8 -1 -8 3 -25 9 -39 8 -18 11 -20 11 -7 1 16 10 17 82 14 79 -3 81
-3 95 24 9 18 19 26 29 23 19 -8 20 -43 2 -50 -20 -7 -14 -46 8 -54 11 -4 -18
-12 -71 -19 -103 -16 -206 -47 -302 -93 -55 -27 -92 -57 -212 -178 -113 -114
-160 -154 -215 -183 -46 -24 -60 -35 -40 -31 57 11 158 45 205 69 60 31 142
51 260 65 52 6 129 19 170 30 82 21 207 50 218 50 4 0 -21 -13 -55 -29 -149
-71 -232 -148 -361 -335 -102 -148 -157 -201 -263 -253 -116 -57 -181 -71
-431 -88 -117 -9 -222 -16 -233 -18 -17 -2 -21 8 -32 87 -7 50 -31 167 -53
262 -22 95 -40 183 -40 196 0 32 108 134 156 147 67 19 241 13 330 -10 147
-38 211 -24 267 59 23 34 30 57 34 115 7 100 -1 109 -202 207 -90 43 -214 110
-275 149 -84 52 -129 73 -183 86 -57 14 -80 25 -112 56 -37 35 -154 99 -182
99 -7 0 -13 4 -13 9 0 5 -8 11 -17 14 -10 2 1 3 23 3 29 -1 40 -5 37 -13z
m560 5 c6 -21 -4 -48 -19 -48 -18 0 -28 24 -20 45 7 18 33 20 39 3z m-5619 -7
c9 -15 -23 -36 -36 -23 -5 5 -7 15 -4 21 9 13 33 14 40 2z m4474 2 c-10 -2
-26 -2 -35 0 -10 3 -2 5 17 5 19 0 27 -2 18 -5z m275 -12 c-2 -6 1 -11 5 -11
5 0 14 -11 20 -25 13 -29 13 -29 -39 -13 -41 12 -48 32 -19 55 17 14 36 11 33
-6z m2485 -77 c-2 -10 -11 -20 -21 -22 -12 -3 -17 3 -17 21 0 26 18 41 33 27
5 -4 7 -16 5 -26z m302 21 c0 -8 -7 -15 -15 -15 -8 0 -15 7 -15 15 0 8 7 15
15 15 8 0 15 -7 15 -15z m-6913 -21 c-9 -9 -28 6 -21 18 4 6 10 6 17 -1 6 -6
8 -13 4 -17z m8634 -7 c-13 -13 -26 -3 -16 12 3 6 11 8 17 5 6 -4 6 -10 -1
-17z m-5088 -7 c9 -11 13 -20 7 -20 -5 0 -14 9 -20 20 -6 11 -9 20 -8 20 2 0
11 -9 21 -20z m2785 -21 c3 -28 -16 -43 -43 -33 -31 12 -8 68 25 62 8 -2 16
-15 18 -29z m-3028 -8 c0 -26 -17 -36 -35 -21 -18 15 -8 40 16 40 12 0 19 -7
19 -19z m220 11 c0 -4 -9 -13 -20 -20 -22 -13 -27 -3 -8 16 14 14 28 16 28 4z
m-1470 -19 c0 -26 -16 -47 -29 -39 -6 4 -11 18 -11 32 0 17 5 24 20 24 12 0
20 -7 20 -17z m600 -12 c0 -23 -16 -36 -25 -21 -9 14 1 40 15 40 5 0 10 -9 10
-19z m883 4 c-3 -9 -8 -14 -10 -11 -3 3 -2 9 2 15 9 16 15 13 8 -4z m4429 0
c0 -5 -5 -11 -11 -13 -6 -2 -11 4 -11 13 0 9 5 15 11 13 6 -2 11 -8 11 -13z
m-6752 -15 c0 -11 -4 -20 -10 -20 -5 0 -10 2 -10 4 0 2 -3 11 -6 20 -4 11 -1
16 10 16 9 0 16 -8 16 -20z m997 4 c8 -20 -13 -42 -27 -28 -12 12 -3 44 11 44
5 0 12 -7 16 -16z m-1117 -15 c0 -24 -23 -21 -28 4 -2 10 3 17 12 17 10 0 16
-9 16 -21z m2420 1 c0 -5 -5 -10 -11 -10 -5 0 -7 5 -4 10 3 6 8 10 11 10 2 0
4 -4 4 -10z m5544 -5 c3 -9 -1 -18 -10 -22 -19 -7 -28 2 -21 22 8 19 23 19 31
0z m-5639 -15 c-3 -5 -12 -10 -18 -10 -7 0 -6 4 3 10 19 12 23 12 15 0z m3985
-15 c0 -25 -14 -34 -24 -16 -8 12 3 41 15 41 5 0 9 -11 9 -25z m-5790 -45 c17
-34 34 -58 39 -56 5 3 12 20 16 38 l8 33 6 -35 c5 -30 9 -35 31 -32 14 2 40
10 59 18 58 24 46 7 -18 -25 -63 -32 -69 -39 -49 -59 9 -9 7 -13 -5 -18 -12
-4 -17 -18 -17 -47 0 -46 -10 -42 -25 11 -12 41 -11 41 -120 29 l-60 -7 65 26
c36 14 69 29 74 34 6 6 -1 38 -17 80 -14 38 -24 70 -22 70 3 0 18 -27 35 -60z
m1840 40 c-44 -24 -62 -25 -32 -2 13 10 33 18 45 19 17 1 14 -3 -13 -17z
m2458 -14 c2 -10 -1 -23 -7 -29 -15 -15 -46 16 -37 38 8 21 40 15 44 -9z
m-5371 -22 c-9 -9 -28 6 -21 18 4 6 10 6 17 -1 6 -6 8 -13 4 -17z m2824 1
c-42 -19 -50 -19 -25 0 10 8 28 14 39 14 14 0 10 -4 -14 -14z m-325 -6 c10
-17 -13 -36 -27 -22 -12 12 -4 33 11 33 5 0 12 -5 16 -11z m4532 -21 c3 -24 0
-28 -22 -28 -26 0 -36 14 -28 43 8 29 46 17 50 -15z m777 2 c14 -45 -28 -87
-60 -60 -18 15 -19 52 -3 68 19 19 56 14 63 -8z m430 -18 c0 -18 -20 -15 -23
4 -3 10 1 15 10 12 7 -3 13 -10 13 -16z m-5917 -25 c2 -11 -3 -17 -16 -17 -20
0 -36 23 -24 34 11 12 37 1 40 -17z m356 -7 c-32 -16 -70 -39 -84 -49 -28 -22
-20 -42 9 -24 47 30 135 41 266 34 l130 -6 -55 -19 c-155 -53 -258 -136 -375
-301 -90 -126 -150 -186 -227 -223 -70 -33 -117 -47 -195 -57 -79 -10 -64 -25
25 -25 100 0 163 16 357 89 181 67 214 74 445 96 213 20 216 19 144 -14 -58
-27 -63 -33 -119 -127 -111 -186 -189 -243 -340 -252 -67 -3 -104 2 -229 32
-82 20 -179 39 -215 42 -129 12 -399 -44 -455 -94 -11 -11 -34 -28 -51 -38
l-30 -18 20 24 c17 20 18 23 3 17 -10 -4 -18 -2 -18 3 0 6 7 10 15 10 20 0 85
88 78 106 -3 8 1 14 11 14 9 0 16 5 16 10 0 6 -4 10 -10 10 -5 0 -10 7 -10 15
0 18 16 20 24 3 2 -7 4 1 3 19 -1 21 7 40 21 56 12 13 22 28 22 33 0 13 134
144 147 144 5 0 16 8 25 18 31 31 53 48 91 67 20 11 37 27 37 35 0 8 16 24 36
35 21 11 51 33 68 49 17 16 45 35 62 42 17 7 36 20 44 28 7 9 19 16 26 16 8 0
14 6 14 13 0 6 18 21 40 31 22 11 40 25 40 33 0 21 203 151 239 152 8 1 -12
-12 -45 -29z m-2213 -60 c6 -34 17 -60 24 -60 6 0 37 9 68 19 67 23 77 10 12
-14 -72 -28 -73 -38 -8 -68 64 -29 60 -36 -7 -12 -23 8 -49 15 -56 15 -8 0
-11 -6 -8 -15 4 -8 2 -15 -4 -15 -6 0 -12 5 -14 12 -3 8 -23 -1 -56 -26 -62
-45 -67 -40 -11 15 22 22 39 45 37 51 -3 7 -27 18 -54 25 l-49 12 55 -2 55 -2
-2 63 c-2 34 -1 62 2 62 2 0 9 -27 16 -60z m8349 39 c0 -5 -4 -9 -10 -9 -5 0
-10 7 -10 16 0 8 5 12 10 9 6 -3 10 -10 10 -16z m-9415 -9 c0 -8 -8 -16 -17
-18 -13 -2 -18 3 -18 18 0 15 5 20 18 18 9 -2 17 -10 17 -18z m5872 -22 c-3
-8 -6 -5 -6 6 -1 11 2 17 5 13 3 -3 4 -12 1 -19z m-6551 -44 c-5 -13 -10 -14
-18 -6 -6 6 -8 18 -4 28 5 13 10 14 18 6 6 -6 8 -18 4 -28z m2972 -18 c-2 -15
-10 -21 -28 -21 -30 0 -38 26 -14 49 20 21 47 4 42 -28z m7557 24 c11 -17 -5
-32 -21 -19 -8 6 -14 15 -14 20 0 12 27 11 35 -1z m-10177 -23 c4 -20 -25 -34
-40 -19 -15 15 -1 44 19 40 10 -2 19 -11 21 -21z m7616 -43 c11 -29 6 -44 -13
-44 -25 0 -34 14 -26 40 8 24 30 26 39 4z m-6594 -34 c0 -11 -7 -20 -15 -20
-15 0 -21 21 -8 33 12 13 23 7 23 -13z m8231 0 c23 -13 25 -46 2 -54 -19 -8
-33 9 -33 42 0 25 3 26 31 12z m-111 -31 c0 -10 -9 -28 -21 -40 -16 -16 -23
-18 -35 -8 -19 16 -18 35 6 59 23 23 50 17 50 -11z m-8281 2 c8 -14 7 -20 -3
-24 -17 -7 -40 18 -31 33 10 15 23 12 34 -9z m7279 -25 c3 -12 -1 -17 -10 -14
-7 3 -15 13 -16 22 -3 12 1 17 10 14 7 -3 15 -13 16 -22z m-5160 -9 c2 -12 -3
-17 -17 -17 -15 0 -21 6 -21 21 0 25 33 22 38 -4z m-2240 -26 c6 -37 -16 -50
-38 -23 -23 28 -16 54 14 50 13 -2 22 -12 24 -27z m-328 4 c0 -8 -4 -15 -10
-15 -5 0 -10 7 -10 15 0 8 5 15 10 15 6 0 10 -7 10 -15z m9682 -17 c-15 -15
-26 -4 -18 18 5 13 9 15 18 6 9 -9 9 -15 0 -24z m-1322 -43 c0 -8 -4 -15 -10
-15 -5 0 -10 7 -10 15 0 8 5 15 10 15 6 0 10 -7 10 -15z m-6430 -25 c0 -23 -4
-30 -20 -30 -23 0 -35 22 -26 45 3 8 15 15 26 15 16 0 20 -7 20 -30z m-2856
-25 c-6 -16 -24 -21 -24 -7 0 11 11 22 21 22 5 0 6 -7 3 -15z m10416 -15 c0
-5 -4 -10 -10 -10 -5 0 -10 5 -10 10 0 6 5 10 10 10 6 0 10 -4 10 -10z m-8774
-37 c-3 -8 -6 -17 -6 -19 0 -2 -6 -4 -14 -4 -21 0 -30 19 -16 35 14 17 43 8
36 -12z m474 17 c0 -5 -4 -10 -10 -10 -5 0 -10 5 -10 10 0 6 5 10 10 10 6 0
10 -4 10 -10z m7028 -47 c-5 -25 -28 -28 -28 -4 0 12 6 21 16 21 9 0 14 -7 12
-17z m-740 -101 c2 -12 -1 -22 -7 -22 -13 0 -32 35 -24 44 12 12 28 0 31 -22z
m1638 -9 c-10 -10 -19 5 -10 18 6 11 8 11 12 0 2 -7 1 -15 -2 -18z m-9666 -14
c0 -11 -27 -12 -34 0 -3 4 -3 11 0 14 8 8 34 -3 34 -14z m10355 1 c9 -28 -13
-52 -44 -48 -48 6 -35 68 15 68 14 0 25 -8 29 -20z m-10005 -10 c0 -5 -4 -10
-10 -10 -5 0 -10 5 -10 10 0 6 5 10 10 10 6 0 10 -4 10 -10z m-542 -27 c5 -17
-26 -29 -40 -15 -6 6 -7 15 -3 22 9 14 37 9 43 -7z m912 -4 c0 -5 -7 -9 -15
-9 -15 0 -20 12 -9 23 8 8 24 -1 24 -14z m1408 -2 c4 -20 -25 -34 -39 -20 -14
14 1 45 20 41 9 -2 17 -11 19 -21z m366 -22 c3 -9 -1 -18 -10 -22 -19 -7 -28
2 -21 22 8 19 23 19 31 0z m346 -36 c0 -24 -4 -30 -17 -27 -22 4 -30 47 -12
59 20 12 29 1 29 -32z m22 9 c-8 -8 -9 -4 -5 13 4 13 8 18 11 10 2 -7 -1 -18
-6 -23z m6168 -3 c0 -16 -27 -32 -37 -22 -3 4 -3 13 0 22 8 20 37 20 37 0z
m-7442 -33 c2 -13 -3 -25 -13 -28 -23 -9 -38 10 -30 36 9 27 39 22 43 -8z
m-257 -5 c-1 -4 -1 -14 -1 -22 0 -8 -7 -15 -15 -15 -15 0 -21 31 -8 44 8 8 25
3 24 -7z m8654 -57 c-5 -8 -11 -8 -17 -2 -6 6 -7 16 -3 22 5 8 11 8 17 2 6 -6
7 -16 3 -22z m-9347 3 c-5 -26 -38 -29 -38 -4 0 15 6 21 21 21 14 0 19 -5 17
-17z m8845 4 c3 -8 1 -20 -4 -28 -11 -19 -34 3 -26 25 8 20 23 21 30 3z
m-7499 -6 c9 -14 -4 -41 -20 -41 -8 0 -14 10 -14 25 0 25 23 35 34 16z m6562
-12 c8 -14 -11 -33 -25 -25 -11 7 -4 36 9 36 5 0 12 -5 16 -11z m-8358 -102
c2 -10 -3 -17 -12 -17 -10 0 -16 9 -16 21 0 24 23 21 28 -4z m2507 -26 c-6
-20 -34 -28 -48 -15 -3 4 1 20 9 37 14 26 17 28 31 14 9 -9 13 -23 8 -36z
m-1852 -7 c-8 -20 -37 -13 -41 10 -5 26 20 40 35 20 6 -9 9 -22 6 -30z m1552
1 c0 -28 -29 -25 -33 3 -3 19 0 23 15 20 10 -2 18 -12 18 -23z m282 -37 c12
-20 12 -37 1 -45 -6 -3 -8 -1 -5 4 7 11 -22 28 -31 18 -3 -3 0 -5 6 -5 25 0
10 -27 -23 -43 -19 -9 -35 -12 -35 -7 0 6 11 16 25 22 15 7 24 17 21 25 -3 8
1 16 9 19 8 4 12 10 9 15 -3 5 -1 9 5 9 5 0 13 -6 18 -12z m4961 -36 c3 -16
-2 -22 -17 -22 -24 0 -35 15 -27 36 9 23 40 13 44 -14z m2652 13 c0 -8 -4 -15
-9 -15 -13 0 -22 16 -14 24 11 11 23 6 23 -9z m-10423 -21 c3 -8 -2 -23 -11
-32 -14 -15 -18 -15 -31 -1 -9 9 -13 23 -9 32 8 21 43 22 51 1z m9233 -33 c0
-11 -5 -23 -11 -27 -15 -9 -33 12 -26 30 9 23 37 20 37 -3z m-1721 -8 c-7 -10
-21 -26 -31 -36 -10 -10 -18 -23 -18 -30 0 -7 4 -6 10 3 8 12 16 9 46 -22 47
-46 42 -74 -11 -65 -52 8 -46 -20 16 -85 28 -29 63 -66 77 -81 15 -15 38 -33
51 -40 13 -7 29 -21 35 -32 6 -11 21 -34 33 -52 13 -17 23 -38 23 -47 0 -8 4
-17 9 -20 15 -9 22 -68 10 -82 -6 -8 -21 -14 -33 -15 -20 0 -20 -1 -1 -8 11
-5 27 -6 35 -4 13 4 13 4 0 -7 -12 -9 -10 -10 13 -5 24 5 27 4 15 -9 -10 -11
-17 -11 -33 -2 -11 6 -24 11 -30 12 -5 0 -35 7 -65 16 -30 9 -73 21 -96 27
l-41 11 -6 68 c-7 83 -34 158 -78 213 l-33 42 22 63 c12 34 22 80 22 102 0 31
7 46 32 71 35 34 48 41 27 14z m-4799 -7 c0 -3 -4 -8 -10 -11 -5 -3 -10 -1
-10 4 0 6 5 11 10 11 6 0 10 -2 10 -4z m5140 -11 c10 -12 10 -18 0 -30 -19
-23 -40 -18 -40 8 0 38 18 48 40 22z m-5203 -26 c-22 -11 -41 -18 -44 -16 -2
3 5 8 16 12 12 3 21 11 21 16 0 5 10 9 23 9 18 -1 15 -5 -16 -21z m-2081 -36
c-10 -10 -19 5 -10 18 6 11 8 11 12 0 2 -7 1 -15 -2 -18z m8064 -13 c0 -5 -2
-10 -4 -10 -3 0 -8 5 -11 10 -3 6 -1 10 4 10 6 0 11 -4 11 -10z m-8422 -48 c2
-7 -3 -12 -12 -12 -9 0 -16 7 -16 16 0 17 22 14 28 -4z m9602 -17 c0 -8 -7
-15 -15 -15 -8 0 -15 7 -15 15 0 8 7 15 15 15 8 0 15 -7 15 -15z m-1025 -41
c0 -10 -8 -20 -17 -22 -18 -3 -26 27 -11 42 12 11 28 0 28 -20z m-8845 -3 c0
-6 -4 -13 -10 -16 -5 -3 -10 1 -10 9 0 9 5 16 10 16 6 0 10 -4 10 -9z m8480
-60 c0 -6 -4 -13 -10 -16 -5 -3 -10 1 -10 9 0 9 5 16 10 16 6 0 10 -4 10 -9z
m-485 -41 c0 -22 -29 -18 -33 3 -3 14 1 18 15 15 10 -2 18 -10 18 -18z m1383
-31 c3 -19 -27 -34 -40 -21 -13 13 2 43 21 40 9 -2 17 -10 19 -19z m882 -10
c0 -5 -7 -9 -15 -9 -15 0 -20 12 -9 23 8 8 24 -1 24 -14z m-1963 -15 c8 -21
-13 -42 -28 -27 -13 13 -5 43 11 43 6 0 13 -7 17 -16z m1613 -4 c0 -5 -4 -10
-10 -10 -5 0 -10 5 -10 10 0 6 5 10 10 10 6 0 10 -4 10 -10z m-10006 -75 c3
-9 -1 -18 -10 -22 -19 -7 -39 11 -30 26 10 16 33 13 40 -4z m2780 -61 c3 -9 3
-20 0 -25 -11 -18 -13 -70 -3 -63 6 3 9 15 6 25 -8 30 12 33 23 4 14 -37 150
-171 240 -237 96 -70 110 -87 117 -136 7 -50 -23 -97 -74 -118 -32 -14 -137
-36 -234 -49 -35 -4 -54 -14 -80 -42 -46 -48 -178 -135 -193 -126 -7 5 -4 9 8
11 15 3 16 6 5 14 -10 7 -8 8 9 5 26 -6 28 1 5 20 -17 13 -16 14 7 9 14 -3 19
-3 13 0 -8 3 -13 25 -13 54 0 48 -17 103 -29 96 -3 -2 -6 6 -6 19 0 13 3 21 8
18 4 -2 7 -10 7 -17 0 -8 7 -19 15 -26 9 -8 15 -8 15 -2 0 6 -5 12 -11 14 -15
5 10 118 28 125 7 3 13 21 13 42 0 20 7 50 16 66 8 17 24 57 35 90 11 33 26
71 34 85 7 14 12 39 10 55 -1 17 4 42 11 58 9 16 10 27 4 27 -5 0 -10 -5 -10
-12 0 -6 -2 -9 -5 -6 -7 7 5 38 15 38 4 0 11 -7 14 -16z m7216 -14 c0 -5 -7
-10 -16 -10 -8 0 -12 5 -9 10 3 6 10 10 16 10 5 0 9 -4 9 -10z m-1102 -63 c4
-20 -25 -34 -40 -19 -15 15 -1 44 19 40 10 -2 19 -11 21 -21z m-6501 -9 c-3
-8 -6 -5 -6 6 -1 11 2 17 5 13 3 -3 4 -12 1 -19z m5828 -34 c0 -10 -8 -20 -17
-22 -18 -3 -26 27 -11 42 12 11 28 0 28 -20z m-8069 -23 c-11 -18 -36 -13 -36
7 0 10 3 22 7 26 10 10 37 -20 29 -33z m9140 0 c-10 -16 -36 -13 -36 3 0 17
21 27 34 16 4 -5 5 -13 2 -19z m-1296 -11 c9 0 23 -7 30 -15 7 -9 19 -14 25
-11 20 7 97 -16 87 -26 -11 -11 -62 0 -62 14 0 5 -4 6 -10 3 -12 -7 -90 15
-90 26 0 5 -8 5 -17 2 -16 -6 -17 -5 -3 11 8 11 16 14 18 7 2 -6 12 -11 22
-11z m1597 3 c2 -6 -3 -13 -12 -16 -10 -5 -15 0 -15 14 0 21 21 22 27 2z
m-9629 -10 c-5 -26 -38 -29 -38 -4 0 15 6 21 21 21 14 0 19 -5 17 -17z m10662
-53 c0 -13 -7 -20 -20 -20 -19 0 -27 20 -13 33 13 14 33 6 33 -13z m-9320 -32
c0 -16 -31 -48 -47 -48 -7 0 -13 4 -13 9 0 5 -3 16 -6 24 -9 23 24 49 47 37
10 -6 19 -16 19 -22z m-1232 0 c-6 -18 -28 -21 -28 -4 0 9 7 16 16 16 9 0 14
-5 12 -12z m2430 -30 c17 -17 15 -58 -4 -65 -36 -13 -68 33 -44 62 15 18 32
19 48 3z m-2248 -18 c0 -5 -4 -10 -10 -10 -5 0 -10 5 -10 10 0 6 5 10 10 10 6
0 10 -4 10 -10z m8405 -60 c0 -8 -10 -16 -22 -18 -17 -3 -20 1 -16 18 6 24 38
24 38 0z m-6437 -2 c-6 -18 -28 -21 -28 -4 0 9 7 16 16 16 9 0 14 -5 12 -12z
m6802 -28 c0 -12 -29 -20 -35 -10 -9 15 4 30 20 23 8 -3 15 -9 15 -13z m500
-20 c0 -5 -4 -10 -10 -10 -5 0 -10 5 -10 10 0 6 5 10 10 10 6 0 10 -4 10 -10z
m-8990 -20 c0 -5 -4 -10 -10 -10 -5 0 -10 5 -10 10 0 6 5 10 10 10 6 0 10 -4
10 -10z m9896 -57 c-6 -14 -9 -15 -16 -4 -11 19 -1 46 13 32 5 -5 7 -18 3 -28z
m-3033 0 c18 -9 26 -18 20 -20 -17 -6 -83 16 -83 28 0 14 28 11 63 -8z m2487
-24 c0 -10 -7 -19 -15 -19 -15 0 -21 31 -9 43 11 10 24 -3 24 -24z m-1728 -25
c14 -22 29 -50 32 -64 4 -17 1 -14 -11 10 -12 26 -18 31 -20 18 -5 -22 -23
-24 -23 -3 0 8 5 15 10 15 15 0 12 16 -5 34 -10 10 -29 14 -53 12 -35 -3 -37
-5 -34 -35 5 -45 -6 -75 -23 -61 -10 8 -14 7 -18 -2 -4 -10 -8 -10 -16 2 -8
11 -11 11 -11 2 0 -16 38 -31 62 -24 10 2 18 11 18 19 0 8 6 13 13 10 7 -2 12
-21 12 -45 0 -25 5 -42 11 -42 15 0 23 -88 9 -95 -5 -3 -1 -3 10 0 17 4 21 0
23 -24 3 -40 -14 -48 -43 -21 -15 14 -25 18 -30 11 -3 -6 -1 -11 5 -11 7 0 9
-7 6 -16 -3 -8 -2 -12 3 -9 5 3 14 -18 20 -47 17 -86 44 -347 37 -363 -7 -18
-36 -9 -36 12 0 8 -4 12 -10 8 -5 -3 -7 -12 -3 -20 3 -10 0 -14 -8 -12 -8 2
-11 2 -6 0 10 -6 9 -83 -1 -83 -5 0 -12 -55 -15 -122 -5 -93 -10 -124 -21
-130 -12 -7 -15 -27 -15 -86 0 -42 5 -82 10 -89 7 -7 7 -13 0 -17 -5 -4 0 -16
12 -30 17 -18 31 -22 62 -20 62 5 -125 -33 -275 -56 -74 -11 -207 -32 -295
-45 -313 -49 -649 -85 -931 -101 l-122 -7 -18 38 c-21 45 -65 67 -119 58 -35
-6 -37 -5 -33 20 2 15 -5 35 -18 49 -11 13 -41 57 -66 98 -64 104 -246 320
-315 375 -32 25 -73 50 -90 56 -18 6 -33 14 -33 19 0 5 39 31 88 59 107 61
177 113 223 166 43 48 136 201 150 247 6 18 13 39 15 47 3 9 8 10 17 3 61 -51
397 -64 587 -23 57 12 136 36 176 52 l71 29 74 -15 c45 -10 158 -19 287 -24
177 -6 215 -10 229 -24 15 -15 14 -19 -9 -54 -27 -40 -182 -222 -265 -310 -34
-36 -60 -54 -91 -63 -23 -6 -48 -19 -54 -30 -11 -18 -13 -18 -41 6 -17 14 -41
24 -60 24 -65 0 -76 -9 -119 -94 -22 -44 -46 -84 -52 -88 -23 -15 136 -7 256
12 114 19 128 24 190 66 45 31 91 75 137 133 38 47 96 112 129 143 l60 58 5
-33 c20 -112 20 -125 -4 -167 -24 -43 -26 -43 -92 -24 -11 3 -19 -1 -24 -13
-3 -10 -26 -47 -51 -82 -35 -50 -42 -65 -31 -72 8 -5 17 -9 20 -9 3 0 13 -18
23 -40 20 -46 39 -50 74 -17 13 12 65 42 115 67 76 37 95 51 109 80 28 59 37
183 25 355 -10 143 -9 159 8 193 31 64 36 102 17 136 -9 17 -15 35 -14 39 1 5
-2 6 -7 3 -5 -3 -20 3 -34 14 -14 11 -28 20 -31 20 -3 0 -35 14 -71 30 -36 17
-71 30 -77 30 -6 0 -8 3 -5 7 8 7 267 21 337 18 40 -2 48 -7 72 -41z m-8152
11 c0 -8 -7 -15 -15 -15 -16 0 -20 12 -8 23 11 12 23 8 23 -8z m895 -44 c3 -6
-3 -15 -14 -20 -27 -15 -31 -14 -31 9 0 21 33 29 45 11z m623 -18 c-4 -35 -33
-43 -41 -12 -8 29 -1 39 24 39 16 0 20 -6 17 -27z m7717 -18 c0 -25 -4 -30
-25 -30 -16 0 -26 6 -28 18 -6 30 6 49 30 45 18 -2 23 -9 23 -33z m563 -24
c-2 -9 -11 -17 -21 -19 -21 -4 -35 27 -17 38 19 12 42 0 38 -19z m-1632 -59
c-4 -3 -6 1 -6 9 0 11 -2 11 -8 2 -5 -8 -8 2 -8 24 l0 37 14 -33 c7 -18 11
-36 8 -39z m-5819 47 c16 -16 5 -39 -18 -39 -14 0 -19 7 -19 25 0 26 18 33 37
14z m-577 -14 c0 -8 -7 -15 -15 -15 -8 0 -15 7 -15 15 0 8 7 15 15 15 8 0 15
-7 15 -15z m1906 -61 c-13 -57 -49 -86 -222 -174 l-169 -86 -3 -37 c-4 -43
-22 -40 -22 4 0 17 -8 36 -19 46 -20 16 -20 17 0 41 10 14 19 30 19 37 0 7 30
16 74 23 82 13 167 46 222 88 36 28 74 89 74 121 0 15 4 13 26 -9 21 -20 25
-32 20 -54z m-3456 56 c0 -5 -4 -10 -10 -10 -5 0 -10 5 -10 10 0 6 5 10 10 10
6 0 10 -4 10 -10z m447 -27 c-16 -16 -17 -16 -17 3 0 26 11 37 24 24 7 -7 5
-16 -7 -27z m7533 2 c0 -5 -5 -3 -10 5 -5 8 -10 20 -10 25 0 6 5 3 10 -5 5 -8
10 -19 10 -25z m590 21 c0 -25 -12 -46 -26 -46 -14 0 -20 41 -7 53 12 12 33 7
33 -7z m1528 -8 c-2 -13 -10 -23 -18 -23 -8 0 -16 10 -18 23 -3 17 2 22 18 22
16 0 21 -5 18 -22z m92 -58 c0 -5 -4 -10 -10 -10 -5 0 -10 5 -10 10 0 6 5 10
10 10 6 0 10 -4 10 -10z m-8912 -52 c-3 -37 -35 -50 -57 -24 -18 22 3 56 35
56 22 0 25 -4 22 -32z m3758 -23 c35 -93 2 -158 -142 -278 -41 -34 -81 -77
-90 -95 -23 -49 -20 -132 10 -247 26 -104 39 -207 56 -455 11 -156 19 -177 73
-210 25 -16 50 -20 114 -20 116 0 118 2 86 59 -38 67 -62 90 -99 97 -38 7 -43
19 -71 159 -22 114 -25 440 -5 497 11 32 21 40 70 58 31 12 76 32 99 46 23 13
44 24 46 24 3 0 -15 -21 -39 -47 -49 -54 -79 -129 -70 -175 3 -17 30 -69 60
-117 41 -64 64 -116 90 -203 43 -143 59 -182 92 -226 l26 -34 -21 -14 c-28
-20 -26 -50 4 -99 13 -22 25 -43 25 -47 0 -13 -1159 -9 -1825 7 -803 18 -1071
28 -1020 36 22 3 30 7 19 8 -28 1 -38 28 -19 47 11 11 15 37 15 90 0 59 3 74
15 74 21 0 21 112 0 134 -8 8 -15 21 -15 30 0 8 -14 30 -30 48 -27 29 -32 31
-51 20 -12 -8 -23 -11 -25 -9 -8 8 168 107 178 101 7 -4 8 -2 4 4 -4 7 7 18
26 28 18 9 78 47 133 84 102 68 204 125 211 117 8 -7 34 -141 34 -174 0 -53
20 -80 87 -124 51 -33 63 -46 63 -68 0 -35 41 -121 71 -148 28 -25 142 -79
179 -84 38 -6 37 27 -3 123 -19 46 -37 91 -41 101 -4 12 -16 17 -44 17 -38 0
-40 1 -46 40 -5 32 -14 45 -44 64 -33 21 -40 32 -51 82 -7 33 -33 110 -58 173
-24 62 -41 117 -36 122 4 4 61 33 126 63 79 37 119 51 122 43 3 -7 11 -32 20
-56 8 -24 30 -69 49 -100 44 -72 59 -121 85 -261 19 -104 36 -173 56 -222 6
-15 2 -18 -19 -18 -19 0 -32 -9 -46 -32 -11 -18 -20 -41 -20 -50 0 -15 153
-158 192 -179 14 -8 19 -4 24 18 3 16 10 46 16 67 6 24 7 127 3 265 l-7 226
32 -50 c18 -27 62 -84 99 -125 97 -108 107 -123 136 -200 16 -43 38 -79 55
-92 36 -29 98 -112 116 -154 8 -18 17 -35 22 -38 4 -3 54 -8 110 -12 117 -8
122 -4 74 62 -37 50 -53 63 -99 79 -34 12 -38 17 -35 45 2 24 -4 37 -24 53
-15 11 -44 57 -64 101 -43 91 -77 143 -195 295 -95 123 -115 158 -115 203 0
36 46 127 70 139 8 4 46 12 84 17 154 24 310 148 330 264 l7 37 70 -24 c117
-40 328 -62 444 -46 95 14 163 44 190 87 11 18 23 30 27 28 3 -2 14 -24 24
-49z m3827 40 c8 -18 -11 -31 -25 -17 -11 11 -3 32 12 32 4 0 10 -7 13 -15z
m-6518 -15 c4 -6 -1 -7 -11 -3 -13 5 -15 3 -9 -7 5 -9 4 -11 -4 -6 -6 4 -9 12
-6 17 8 12 22 12 30 -1z m7539 -11 c-3 -5 -10 -7 -15 -3 -5 3 -7 10 -3 15 3 5
10 7 15 3 5 -3 7 -10 3 -15z m-7115 -49 c13 0 16 -13 16 -82 0 -91 13 -124
109 -273 45 -70 45 -70 23 -82 -27 -15 -67 -17 -67 -3 0 5 6 7 14 4 7 -3 16 2
19 10 4 10 1 13 -9 9 -7 -3 -14 0 -14 6 0 6 5 11 11 11 8 0 8 4 1 13 -13 16
-92 22 -92 8 0 -6 -17 -26 -37 -45 -32 -29 -36 -36 -24 -50 11 -13 17 -14 30
-4 13 10 14 10 4 -1 -6 -8 -28 -15 -49 -17 -35 -3 -36 -2 -18 12 16 13 15 13
-6 0 -14 -9 -36 -21 -50 -27 -14 -6 -38 -17 -53 -25 -42 -21 -49 -17 -32 16 9
17 12 30 7 30 -16 0 -52 -37 -44 -45 4 -5 -1 -5 -10 -2 -10 4 -17 2 -15 -4 1
-6 -13 -19 -31 -29 -19 -10 -43 -27 -54 -37 -20 -18 -21 -18 -7 4 7 12 23 26
36 32 14 7 23 18 21 28 -2 10 3 17 10 15 6 -1 12 2 12 8 0 5 -4 10 -10 10 -5
0 -10 5 -10 11 0 6 6 9 14 6 10 -4 12 0 9 14 -3 12 0 19 8 20 8 0 5 4 -6 10
-16 7 -14 9 13 6 l32 -4 -1 69 c-1 40 3 74 10 81 6 6 11 18 11 28 0 9 8 27 19
40 24 31 18 125 -8 133 -9 3 2 3 24 1 35 -4 37 -3 15 6 -13 5 -27 14 -31 20
-3 5 -13 7 -22 3 -9 -3 -14 -10 -11 -15 6 -11 -10 -12 -20 -2 -4 4 30 27 76
50 71 37 89 42 127 38 24 -3 51 -5 60 -5z m-1756 -14 c6 -15 -1 -26 -15 -26
-4 0 -8 9 -8 20 0 23 15 27 23 6z m395 -63 c-5 -25 -28 -28 -28 -4 0 12 6 21
16 21 9 0 14 -7 12 -17z m389 1 c3 -8 -1 -23 -10 -32 -15 -14 -17 -14 -23 1
-8 21 1 47 16 47 6 0 13 -7 17 -16z m7673 1 c0 -8 -4 -15 -10 -15 -5 0 -10 7
-10 15 0 8 5 15 10 15 6 0 10 -7 10 -15z m-6985 -15 c-3 -5 -12 -10 -18 -10
-7 0 -6 4 3 10 19 12 23 12 15 0z m-2715 -20 c0 -5 -5 -12 -11 -16 -14 -8 -33
11 -25 25 7 11 36 4 36 -9z m8434 -6 c9 -3 16 -12 16 -18 0 -18 -21 -35 -36
-29 -15 5 -19 35 -7 46 8 8 8 8 27 1z m-7764 -24 c0 -5 -4 -10 -10 -10 -5 0
-10 5 -10 10 0 6 5 10 10 10 6 0 10 -4 10 -10z m9176 -56 c-5 -13 -10 -14 -18
-6 -6 6 -8 18 -4 28 5 13 10 14 18 6 6 -6 8 -18 4 -28z m-7618 -21 c-5 -25
-28 -28 -28 -4 0 12 6 21 16 21 9 0 14 -7 12 -17z m1142 -16 c0 -8 -11 -24
-24 -37 l-25 -23 -6 26 c-4 14 -4 31 0 36 9 16 55 13 55 -2z m-1653 -33 c8
-21 -13 -42 -28 -27 -13 13 -5 43 11 43 6 0 13 -7 17 -16z m7266 -30 c-7 -18
-39 -18 -47 1 -3 8 2 22 11 31 15 15 18 15 29 -1 7 -9 10 -23 7 -31z m-5135 0
c-11 -19 -24 -61 -27 -92 l-7 -57 -32 69 c-18 38 -32 76 -30 85 3 17 36 28 85
30 l32 1 -21 -36z m-3728 -13 c0 -5 -7 -17 -16 -26 -19 -19 -40 -6 -31 19 7
17 47 22 47 7z m9226 -56 c8 -20 -16 -49 -29 -36 -11 11 0 51 14 51 5 0 12 -7
15 -15z m914 -1 c0 -9 -5 -14 -12 -12 -18 6 -21 28 -4 28 9 0 16 -7 16 -16z
m-8898 -26 c-7 -7 -12 -8 -12 -2 0 14 12 26 19 19 2 -3 -1 -11 -7 -17z m7238
-64 c0 -8 -7 -14 -15 -14 -15 0 -21 21 -9 33 10 9 24 -2 24 -19z m2020 11 c0
-8 -7 -15 -15 -15 -8 0 -15 7 -15 15 0 8 7 15 15 15 8 0 15 -7 15 -15z m-7650
-15 c0 -5 -2 -10 -4 -10 -3 0 -8 5 -11 10 -3 6 -1 10 4 10 6 0 11 -4 11 -10z
m7066 -17 c-10 -10 -19 5 -10 18 6 11 8 11 12 0 2 -7 1 -15 -2 -18z m-492 -4
c-3 -5 -10 -7 -15 -3 -5 3 -7 10 -3 15 3 5 10 7 15 3 5 -3 7 -10 3 -15z
m-9039 1 c3 -5 1 -10 -4 -10 -6 0 -11 5 -11 10 0 6 2 10 4 10 3 0 8 -4 11 -10z
m5078 -63 c43 -66 66 -86 207 -172 72 -44 142 -97 191 -145 65 -64 84 -91 129
-182 41 -84 57 -108 72 -108 17 0 98 -75 98 -90 0 -6 -430 -39 -543 -42 -42
-1 -62 3 -74 15 -24 23 -11 31 62 35 41 3 65 9 65 16 0 21 -171 358 -236 466
-37 62 -64 117 -64 133 0 25 44 127 55 127 2 0 20 -24 38 -53z m-2617 27 c18
-14 18 -14 -6 -3 -31 14 -36 19 -24 19 6 0 19 -7 30 -16z m-2086 -14 c0 -19
-11 -26 -23 -14 -8 8 3 34 14 34 5 0 9 -9 9 -20z m2057 9 l28 -11 -25 -13
c-34 -19 -70 -19 -70 0 0 8 9 15 21 15 11 0 17 5 14 10 -8 13 -3 13 32 -1z
m-2809 -40 c-2 -6 -8 -10 -13 -10 -5 0 -11 4 -13 10 -2 6 4 11 13 11 9 0 15
-5 13 -11z m3722 -32 c0 -24 -3 -28 -10 -17 -13 20 -13 63 0 55 6 -3 10 -21
10 -38z m4648 10 c2 -10 -3 -17 -12 -17 -18 0 -29 16 -21 31 9 14 29 6 33 -14z
m-8070 -4 c-2 -10 -10 -18 -18 -18 -8 0 -16 8 -18 18 -2 12 3 17 18 17 15 0
20 -5 18 -17z m1292 3 c0 -8 -5 -18 -11 -22 -14 -8 -33 11 -25 25 10 16 36 13
36 -3z m367 -32 c8 -20 -13 -42 -27 -28 -12 12 -3 44 11 44 5 0 12 -7 16 -16z
m7583 -4 c0 -13 -7 -20 -20 -20 -13 0 -20 7 -20 20 0 13 7 20 20 20 13 0 20
-7 20 -20z m-432 -23 c2 -10 -3 -17 -12 -17 -18 0 -29 16 -21 31 9 14 29 6 33
-14z m-403 -28 c0 -7 -8 -15 -17 -17 -18 -3 -25 18 -11 32 10 10 28 1 28 -15z
m-7877 -60 c-2 -6 -8 -10 -13 -10 -5 0 -11 4 -13 10 -2 6 4 11 13 11 9 0 15
-5 13 -11z m-348 -33 c0 -18 -16 -29 -30 -21 -13 8 -1 35 16 35 8 0 14 -6 14
-14z m8408 -43 c-5 -26 -38 -29 -38 -4 0 15 6 21 21 21 14 0 19 -5 17 -17z
m-740 -10 c-4 -22 -22 -20 -26 1 -2 10 3 16 13 16 10 0 15 -7 13 -17z m-7833
-43 c0 -7 -6 -15 -12 -17 -8 -3 -13 4 -13 17 0 13 5 20 13 18 6 -3 12 -11 12
-18z m1880 -10 c0 -7 -6 -15 -12 -17 -8 -3 -13 4 -13 17 0 13 5 20 13 18 6 -3
12 -11 12 -18z m-767 -47 c-5 -26 -38 -29 -38 -4 0 15 6 21 21 21 14 0 19 -5
17 -17z m-1050 -90 c-5 -25 -28 -28 -28 -4 0 12 6 21 16 21 9 0 14 -7 12 -17z
m1459 -35 c-3 -8 -6 -5 -6 6 -1 11 2 17 5 13 3 -3 4 -12 1 -19z m-1677 -18 c0
-5 -7 -10 -15 -10 -8 0 -15 5 -15 10 0 6 7 10 15 10 8 0 15 -4 15 -10z m2214
-116 c10 -26 7 -34 -13 -34 -23 0 -35 15 -27 35 7 20 32 19 40 -1z"/>
<path d="M6220 5896 c0 -2 7 -7 16 -10 8 -3 12 -2 9 4 -6 10 -25 14 -25 6z"/>
<path d="M6828 5623 c6 -2 18 -2 25 0 6 3 1 5 -13 5 -14 0 -19 -2 -12 -5z"/>
<path d="M3200 4875 c-8 -9 -8 -15 -2 -15 12 0 26 19 19 26 -2 2 -10 -2 -17
-11z"/>
<path d="M2885 3900 c4 -6 11 -8 16 -5 14 9 11 15 -7 15 -8 0 -12 -5 -9 -10z"/>
<path d="M2785 3650 c-3 -5 -1 -10 4 -10 6 0 11 5 11 10 0 6 -2 10 -4 10 -3 0
-8 -4 -11 -10z"/>
<path d="M8040 3666 c0 -2 7 -7 16 -10 8 -3 12 -2 9 4 -6 10 -25 14 -25 6z"/>
<path d="M8148 3555 c-3 -14 -1 -28 3 -31 5 -3 9 9 9 25 0 38 -6 40 -12 6z"/>
<path d="M8176 3572 c-2 -4 -1 -14 5 -22 7 -12 9 -10 9 8 0 23 -5 28 -14 14z"/>
<path d="M8165 3510 c-3 -5 -1 -10 4 -10 6 0 11 5 11 10 0 6 -2 10 -4 10 -3 0
-8 -4 -11 -10z"/>
<path d="M8131 3494 c0 -11 3 -14 6 -6 3 7 2 16 -1 19 -3 4 -6 -2 -5 -13z"/>
<path d="M8211 3444 c0 -11 3 -14 6 -6 3 7 2 16 -1 19 -3 4 -6 -2 -5 -13z"/>
<path d="M2853 2633 c-15 -5 -17 -23 -4 -23 5 0 11 7 15 15 3 8 4 15 3 14 -1
0 -8 -3 -14 -6z"/>
<path d="M2878 2163 c7 -3 16 -2 19 1 4 3 -2 6 -13 5 -11 0 -14 -3 -6 -6z"/>
<path d="M2920 3333 c8 -3 19 -11 23 -17 6 -7 7 -6 4 4 -2 8 -12 16 -23 17
-13 2 -15 1 -4 -4z"/>
<path d="M2987 3024 c-3 -4 -2 -15 4 -26 5 -10 7 -23 3 -29 -3 -6 5 -3 20 6
31 21 33 29 5 22 -17 -5 -20 -2 -16 14 5 19 -3 25 -16 13z"/>
<path d="M3035 3020 c-3 -5 -1 -10 4 -10 6 0 11 5 11 10 0 6 -2 10 -4 10 -3 0
-8 -4 -11 -10z"/>
</g>
</svg>
